<?xml version="1.0" encoding="UTF-8"?>
<svg xmlns="http://www.w3.org/2000/svg" xmlns:xlink="http://www.w3.org/1999/xlink" width="1440pt" height="1349.999938pt" viewBox="0 0 1440 1349.999938" version="1.2">
<defs>
<clipPath id="clip1">
  <path d="M 319 111 L 1273 111 L 1273 972 L 319 972 Z M 319 111 "/>
</clipPath>
<clipPath id="clip2">
  <path d="M 395.269531 107.421875 L 1352.910156 509.828125 L 1044.929688 1242.75 L 87.292969 840.34375 Z M 395.269531 107.421875 "/>
</clipPath>
<clipPath id="clip3">
  <path d="M 395.269531 107.421875 L 1352.910156 509.828125 L 1044.929688 1242.75 L 87.292969 840.34375 Z M 395.269531 107.421875 "/>
</clipPath>
<clipPath id="clip4">
  <path d="M 311 215 L 1223 215 L 1223 964 L 311 964 Z M 311 215 "/>
</clipPath>
<clipPath id="clip5">
  <path d="M 395.269531 107.421875 L 1352.910156 509.828125 L 1044.929688 1242.75 L 87.292969 840.34375 Z M 395.269531 107.421875 "/>
</clipPath>
<clipPath id="clip6">
  <path d="M 395.269531 107.421875 L 1352.910156 509.828125 L 1044.929688 1242.75 L 87.292969 840.34375 Z M 395.269531 107.421875 "/>
</clipPath>
<clipPath id="clip7">
  <path d="M 216 472 L 1280 472 L 1280 1085 L 216 1085 Z M 216 472 "/>
</clipPath>
<clipPath id="clip8">
  <path d="M 395.269531 107.421875 L 1352.910156 509.828125 L 1044.929688 1242.75 L 87.292969 840.34375 Z M 395.269531 107.421875 "/>
</clipPath>
<clipPath id="clip9">
  <path d="M 395.269531 107.421875 L 1352.910156 509.828125 L 1044.929688 1242.75 L 87.292969 840.34375 Z M 395.269531 107.421875 "/>
</clipPath>
<clipPath id="clip10">
  <path d="M 445.25 260.386719 L 1305.957031 622.0625 L 1044.59375 1244.046875 L 183.886719 882.371094 Z M 445.25 260.386719 "/>
</clipPath>
<clipPath id="clip11">
  <path d="M 445.25 260.386719 L 1304.449219 621.429688 L 1043.601562 1242.1875 L 184.402344 881.144531 Z M 445.25 260.386719 "/>
</clipPath>
<clipPath id="clip12">
  <path d="M 224 473 L 1247 473 L 1247 1046 L 224 1046 Z M 224 473 "/>
</clipPath>
<clipPath id="clip13">
  <path d="M 395.269531 107.421875 L 1352.910156 509.828125 L 1044.929688 1242.75 L 87.292969 840.34375 Z M 395.269531 107.421875 "/>
</clipPath>
<clipPath id="clip14">
  <path d="M 395.269531 107.421875 L 1352.910156 509.828125 L 1044.929688 1242.75 L 87.292969 840.34375 Z M 395.269531 107.421875 "/>
</clipPath>
</defs>
<g id="surface1">
<g clip-path="url(#clip1)" clip-rule="nonzero">
<g clip-path="url(#clip2)" clip-rule="nonzero">
<g clip-path="url(#clip3)" clip-rule="nonzero">
<path style=" stroke:none;fill-rule:nonzero;fill:rgb(28.62854%,72.938538%,29.40979%);fill-opacity:1;" d="M 1272.796875 482.105469 C 1272.175781 483.214844 1271.292969 484.820312 1270.144531 486.90625 C 1204.546875 606.539062 1126.855469 712.503906 1045.476562 793.335938 C 973.476562 864.847656 907.949219 923.109375 834.128906 951.4375 C 741.683594 986.90625 583.976562 968.878906 536.375 945.6875 C 449.753906 909.289062 389.09375 839.089844 353.914062 746.199219 C 325.179688 670.34375 314.324219 576.226562 321.640625 466.457031 C 333.9375 282.109375 392.5 118.46875 394.988281 111.59375 L 440.253906 127.964844 C 440.253906 127.972656 440.253906 127.972656 440.253906 127.972656 C 439.550781 129.933594 381.289062 293.054688 369.609375 470.554688 C 354.433594 701.175781 421.5625 844.871094 567.453125 901.105469 C 875.910156 1019.980469 1154.820312 597.125 1227.9375 463.761719 C 1229.183594 461.492188 1230.148438 459.734375 1230.832031 458.53125 L 1272.796875 482.105469 "/>
</g>
</g>
</g>
<g clip-path="url(#clip4)" clip-rule="nonzero">
<g clip-path="url(#clip5)" clip-rule="nonzero">
<g clip-path="url(#clip6)" clip-rule="nonzero">
<path style=" stroke:none;fill-rule:nonzero;fill:rgb(20.779419%,54.508972%,24.308777%);fill-opacity:1;" d="M 1145.140625 681.121094 C 1147.472656 674.796875 1148.921875 668.265625 1150.261719 661.734375 C 1150.871094 658.457031 1151.378906 655.175781 1151.851562 651.886719 C 1152.292969 648.59375 1152.757812 645.304688 1153.066406 642.003906 C 1153.386719 638.699219 1153.699219 635.398438 1153.898438 632.089844 C 1154.082031 628.90625 1154.265625 625.769531 1154.339844 622.519531 C 1154.800781 619.140625 1155.066406 615.746094 1155.703125 612.398438 L 1156.535156 607.339844 L 1157.546875 602.300781 C 1158.199219 598.9375 1159.085938 595.625 1159.886719 592.296875 C 1160.789062 588.984375 1161.652344 585.664062 1162.714844 582.398438 C 1163.683594 579.105469 1164.84375 575.859375 1165.925781 572.59375 C 1167.128906 569.371094 1168.277344 566.121094 1169.589844 562.933594 C 1170.828125 559.714844 1172.199219 556.542969 1173.578125 553.371094 C 1175.015625 550.226562 1176.367188 547.046875 1177.914062 543.949219 C 1179.402344 540.8125 1180.984375 537.730469 1182.527344 534.621094 C 1184.136719 531.546875 1185.742188 528.464844 1187.457031 525.433594 C 1189.132812 522.378906 1190.925781 519.40625 1192.664062 516.386719 C 1194.421875 513.367188 1196.242188 510.390625 1198.097656 507.429688 C 1201.84375 501.542969 1205.636719 495.640625 1209.6875 489.910156 C 1213.679688 484.128906 1217.839844 478.453125 1222.195312 472.878906 C 1219.476562 475.136719 1216.875 477.558594 1214.324219 480.03125 C 1211.792969 482.507812 1209.296875 485.03125 1206.875 487.632812 C 1202.078125 492.871094 1197.371094 498.222656 1193.023438 503.863281 C 1190.835938 506.664062 1188.667969 509.503906 1186.570312 512.390625 C 1184.441406 515.253906 1182.472656 518.222656 1180.5 521.199219 C 1178.519531 524.171875 1176.632812 527.210938 1174.738281 530.25 C 1172.902344 533.320312 1171.058594 536.390625 1169.375 539.554688 C 1167.625 542.6875 1166.007812 545.890625 1164.398438 549.101562 C 1162.847656 552.339844 1161.300781 555.578125 1159.878906 558.890625 C 1158.382812 562.160156 1157.140625 565.546875 1155.804688 568.882812 C 1154.582031 572.28125 1153.289062 575.644531 1152.257812 579.109375 C 1151.105469 582.535156 1150.175781 586.023438 1149.199219 589.503906 C 1148.316406 593.011719 1147.457031 596.53125 1146.769531 600.085938 L 1145.746094 605.421875 C 1145.441406 607.214844 1145.195312 609.003906 1144.941406 610.796875 C 1144.355469 614.375 1144.148438 618.011719 1143.742188 621.617188 L 1143.714844 621.832031 L 1143.722656 622.085938 C 1143.761719 625.222656 1143.78125 628.503906 1143.75 631.722656 L 1143.613281 641.414062 L 1143.351562 651.117188 C 1143.230469 654.347656 1143.050781 657.570312 1142.820312 660.792969 C 1142.492188 667.242188 1141.820312 673.652344 1140.851562 680.003906 C 1140.3125 683.160156 1139.664062 686.308594 1138.75 689.375 C 1137.777344 692.402344 1136.628906 695.445312 1134.433594 697.925781 C 1137.277344 696.160156 1139.351562 693.273438 1141.015625 690.363281 C 1142.710938 687.417969 1144.015625 684.292969 1145.140625 681.121094 Z M 1105.265625 727.433594 C 1104.101562 728.152344 1102.796875 728.953125 1101.382812 729.824219 C 1099.945312 730.632812 1098.386719 731.515625 1096.71875 732.445312 C 1093.339844 734.242188 1089.457031 736.113281 1085.195312 738.121094 C 1080.894531 740.050781 1076.207031 742.085938 1071.203125 744.160156 C 1066.226562 746.277344 1060.902344 748.390625 1055.414062 750.628906 C 1049.914062 752.855469 1044.222656 755.160156 1038.445312 757.492188 C 1032.652344 759.828125 1026.785156 762.304688 1020.914062 764.785156 C 1015.066406 767.324219 1009.210938 769.859375 1003.507812 772.550781 C 997.789062 775.179688 992.21875 777.976562 986.882812 780.765625 C 981.550781 783.597656 976.453125 786.46875 971.734375 789.425781 C 966.988281 792.304688 962.6875 795.410156 958.800781 798.359375 C 956.863281 799.832031 955.0625 801.351562 953.359375 802.773438 C 951.722656 804.316406 950.160156 805.742188 948.753906 807.148438 C 947.40625 808.632812 946.070312 809.917969 945.003906 811.277344 C 943.941406 812.667969 942.953125 813.882812 942.121094 815.054688 C 940.519531 817.492188 939.433594 819.398438 938.875 820.792969 C 938.257812 822.175781 937.933594 822.902344 937.933594 822.902344 C 937.933594 822.902344 938.449219 822.28125 939.410156 821.132812 C 939.90625 820.570312 940.421875 819.773438 941.207031 819.039062 C 941.988281 818.296875 942.847656 817.429688 943.785156 816.472656 C 944.796875 815.558594 945.996094 814.601562 947.238281 813.546875 C 948.523438 812.535156 949.984375 811.488281 951.484375 810.355469 C 953.042969 809.277344 954.765625 808.191406 956.535156 807.035156 C 958.402344 805.980469 960.253906 804.742188 962.308594 803.621094 C 964.371094 802.507812 966.46875 801.289062 968.753906 800.179688 C 971 799.023438 973.3125 797.820312 975.753906 796.683594 C 980.578125 794.304688 985.78125 791.980469 991.15625 789.5625 C 996.574219 787.21875 1002.183594 784.796875 1007.878906 782.335938 C 1013.617188 779.902344 1019.4375 777.425781 1025.269531 774.945312 C 1031.089844 772.425781 1036.933594 769.941406 1042.65625 767.359375 C 1048.390625 764.828125 1054.003906 762.203125 1059.398438 759.597656 C 1064.800781 756.964844 1069.984375 754.332031 1074.828125 751.65625 C 1079.6875 749.039062 1084.171875 746.285156 1088.257812 743.679688 C 1090.285156 742.359375 1092.230469 741.054688 1094.039062 739.800781 C 1095.808594 738.445312 1097.511719 737.210938 1099.054688 735.988281 C 1100.574219 734.695312 1102.042969 733.585938 1103.292969 732.394531 C 1104.523438 731.207031 1105.660156 730.109375 1106.675781 729.121094 C 1108.621094 727.035156 1110.046875 725.335938 1110.894531 724.070312 C 1111.765625 722.84375 1112.238281 722.191406 1112.238281 722.191406 C 1112.238281 722.191406 1111.605469 722.691406 1110.441406 723.636719 C 1109.34375 724.648438 1107.492188 725.835938 1105.265625 727.433594 Z M 912.222656 908.945312 C 909.453125 909.335938 906.90625 908.96875 904.472656 908.265625 C 902.042969 907.535156 899.71875 906.484375 897.453125 905.277344 C 895.191406 904.054688 892.980469 902.695312 890.792969 901.25 C 888.625 899.777344 886.464844 898.269531 884.316406 896.71875 C 880.007812 893.625 875.578125 890.566406 871.261719 887.269531 C 869.101562 885.632812 866.988281 883.925781 864.789062 882.292969 C 862.625 880.632812 860.308594 879.050781 858.199219 877.375 L 853.632812 873.75 L 854.070312 878.835938 C 854.523438 884.117188 854.617188 889.359375 853.925781 894.550781 C 853.269531 899.75 851.488281 904.859375 850.570312 910.039062 C 850.101562 912.625 849.863281 915.222656 849.785156 917.835938 C 849.671875 920.449219 849.660156 923.070312 849.734375 925.695312 C 849.804688 928.320312 849.945312 930.949219 850.269531 933.597656 C 850.546875 936.234375 850.941406 938.886719 851.621094 941.550781 L 851.734375 942 L 852.324219 942.042969 L 852.503906 941.613281 C 853.558594 939.066406 854.308594 936.496094 854.957031 933.925781 C 855.644531 931.355469 856.160156 928.769531 856.589844 926.179688 C 857.03125 923.589844 857.382812 920.992188 857.632812 918.386719 C 857.929688 915.792969 858.050781 913.183594 857.953125 910.554688 C 857.761719 905.300781 856.714844 899.988281 856.796875 894.753906 C 856.816406 891.378906 857.191406 888.03125 857.757812 884.699219 C 858.464844 885.625 859.175781 886.542969 859.945312 887.417969 C 861.777344 889.59375 863.773438 891.601562 865.800781 893.578125 C 869.871094 897.539062 874.136719 901.375 878.980469 904.527344 C 881.417969 906.09375 883.949219 907.542969 886.625 908.757812 C 889.292969 909.992188 892.058594 911.082031 894.988281 911.804688 C 897.902344 912.550781 900.964844 913.003906 904.066406 912.78125 C 907.125 912.59375 910.28125 911.660156 912.585938 909.753906 L 912.941406 909.460938 L 912.679688 908.882812 Z M 814.507812 909.1875 C 814.742188 908.050781 814.929688 906.917969 815.101562 905.839844 C 815.222656 904.726562 815.339844 903.660156 815.40625 902.636719 C 815.410156 901.582031 815.472656 900.605469 815.40625 899.640625 C 815.296875 898.675781 815.269531 897.785156 815.101562 896.933594 C 814.84375 895.230469 814.292969 893.792969 813.78125 892.695312 C 813.195312 891.589844 812.632812 890.835938 812.148438 890.398438 C 811.695312 889.964844 811.464844 889.726562 811.464844 889.726562 C 811.464844 889.726562 811.546875 890.050781 811.703125 890.652344 C 811.765625 890.949219 811.921875 891.277344 811.953125 891.710938 C 811.972656 892.152344 812.023438 892.632812 812.078125 893.152344 C 812.09375 894.234375 811.972656 895.507812 811.714844 896.945312 C 811.429688 898.382812 810.9375 899.972656 810.363281 901.691406 C 809.746094 903.410156 809.007812 905.253906 808.152344 907.183594 C 807.292969 909.117188 806.347656 911.140625 805.3125 913.226562 C 803.25 917.402344 800.925781 921.832031 798.558594 926.265625 C 793.855469 935.160156 789.066406 944.152344 785.773438 951.15625 C 784.132812 954.65625 782.816406 957.636719 781.941406 959.761719 C 781.0625 961.875 780.617188 963.140625 780.617188 963.140625 C 780.617188 963.140625 781.679688 962.332031 783.375 960.769531 C 785.082031 959.207031 787.417969 956.898438 790.039062 953.96875 C 792.636719 951.042969 795.5 947.484375 798.316406 943.484375 C 801.136719 939.496094 803.902344 935.050781 806.375 930.421875 C 807.578125 928.085938 808.773438 925.738281 809.796875 923.347656 C 810.867188 920.976562 811.777344 918.566406 812.578125 916.195312 C 813.386719 913.824219 814.011719 911.464844 814.507812 909.1875 Z M 663.554688 921.648438 C 661.289062 921.839844 658.417969 921.832031 655.289062 922.363281 C 653.703125 922.585938 652.007812 922.828125 650.234375 923.078125 C 648.476562 923.398438 646.644531 923.808594 644.726562 924.203125 C 640.902344 925.03125 636.773438 926.015625 632.511719 927.28125 C 628.234375 928.519531 623.789062 929.972656 619.234375 931.554688 C 610.136719 934.730469 600.679688 938.566406 591.34375 942.449219 C 586.707031 944.359375 582.066406 946.28125 577.503906 948.171875 C 575.222656 949.066406 572.972656 949.980469 570.875 950.738281 C 569.800781 951.128906 568.773438 951.542969 567.5625 951.882812 L 565.832031 952.433594 L 564.976562 952.703125 L 564.542969 952.847656 L 564.445312 952.878906 L 564.3125 952.898438 C 560.515625 953.949219 556.4375 953.929688 552.492188 953.371094 C 548.527344 952.835938 544.726562 951.578125 541.253906 950.242188 C 540.394531 949.878906 539.546875 949.53125 538.714844 949.191406 C 537.902344 948.804688 537.109375 948.421875 536.324219 948.054688 C 534.738281 947.371094 533.320312 946.53125 531.910156 945.84375 C 529.214844 944.292969 526.8125 942.941406 524.914062 941.707031 C 521.074219 939.265625 518.933594 937.710938 518.933594 937.710938 C 518.933594 937.710938 519.289062 938.246094 520.050781 939.222656 C 520.828125 940.164062 521.925781 941.613281 523.527344 943.269531 C 525.089844 944.964844 527.085938 946.957031 529.554688 949.082031 C 532.074219 951.144531 534.941406 953.53125 538.523438 955.585938 C 542.058594 957.671875 546.117188 959.839844 550.9375 961.105469 C 555.703125 962.394531 561.214844 963.089844 566.84375 962.023438 L 567.113281 961.988281 L 567.496094 961.902344 L 567.941406 961.800781 L 568.824219 961.597656 L 570.601562 961.183594 C 571.753906 960.9375 573.027344 960.535156 574.292969 960.160156 C 575.542969 959.773438 576.871094 959.402344 578.078125 959.003906 C 579.273438 958.585938 580.484375 958.167969 581.695312 957.738281 C 586.527344 956.050781 591.269531 954.113281 596.007812 952.1875 C 600.6875 950.191406 605.371094 948.21875 609.910156 946.183594 C 612.199219 945.195312 614.445312 944.199219 616.664062 943.179688 C 618.878906 942.191406 621.070312 941.21875 623.230469 940.25 C 627.535156 938.347656 631.699219 936.507812 635.65625 934.769531 C 637.621094 933.863281 639.5625 933.082031 641.425781 932.28125 C 643.285156 931.488281 645.078125 930.660156 646.835938 930 C 648.582031 929.300781 650.273438 928.671875 651.859375 927.996094 C 653.46875 927.398438 655 926.835938 656.4375 926.292969 C 657.875 925.726562 659.246094 925.300781 660.515625 924.886719 C 661.78125 924.460938 662.949219 924.070312 664.007812 923.71875 C 668.324219 922.496094 670.804688 921.796875 670.804688 921.796875 C 670.804688 921.796875 670.144531 921.761719 668.917969 921.707031 C 667.699219 921.710938 665.851562 921.535156 663.554688 921.648438 Z M 445.476562 805.367188 C 443.65625 801.265625 441.472656 796.730469 438.601562 791.898438 C 437.867188 790.660156 437.105469 789.414062 436.34375 788.257812 L 435.761719 787.367188 C 435.515625 786.972656 435.25 786.671875 434.984375 786.320312 C 434.453125 785.597656 433.910156 785.015625 433.335938 784.417969 C 431.058594 782.082031 428.605469 780.152344 426.066406 778.230469 C 420.988281 774.410156 415.46875 770.902344 409.726562 767.390625 C 403.972656 763.90625 398.003906 760.421875 391.933594 756.933594 C 385.898438 753.453125 379.765625 749.910156 373.632812 746.367188 C 367.546875 742.777344 361.492188 739.183594 355.707031 735.441406 C 352.78125 733.613281 349.960938 731.695312 347.195312 729.792969 C 344.570312 727.949219 341.558594 725.878906 339.398438 723.996094 C 334.753906 720.121094 331.234375 715.289062 329.054688 710.035156 C 326.828125 704.804688 325.722656 699.25 325.472656 694 C 325.167969 688.746094 325.507812 683.789062 326.117188 679.414062 C 326.769531 675.050781 327.539062 671.210938 328.359375 668.097656 C 329.972656 661.851562 331.351562 658.351562 331.351562 658.351562 C 331.351562 658.351562 329.246094 661.460938 326.542969 667.476562 C 325.234375 670.496094 323.710938 674.234375 322.453125 678.699219 C 321.253906 683.164062 320.039062 688.351562 319.777344 694.175781 C 319.492188 699.960938 319.898438 706.464844 322.035156 712.980469 C 324.140625 719.476562 328.011719 725.855469 333.292969 731.007812 C 336.066406 733.664062 338.554688 735.617188 341.417969 737.929688 C 344.210938 740.085938 347.070312 742.207031 350 744.253906 C 355.863281 748.347656 361.949219 752.21875 368.128906 755.890625 C 374.292969 759.605469 380.558594 763.074219 386.726562 766.445312 C 392.894531 769.746094 398.972656 772.996094 404.851562 776.140625 C 410.703125 779.253906 416.339844 782.261719 421.414062 785.3125 C 423.925781 786.847656 426.328125 788.425781 428.265625 790.066406 C 428.71875 790.480469 429.226562 790.871094 429.59375 791.269531 C 429.785156 791.464844 430.019531 791.664062 430.175781 791.851562 L 430.863281 792.667969 C 431.800781 793.742188 432.605469 794.765625 433.390625 795.761719 C 436.566406 799.890625 439.339844 803.996094 441.78125 807.601562 C 444.167969 811.292969 446.242188 814.5 447.949219 817.148438 C 451.328125 822.511719 453.261719 825.585938 453.261719 825.585938 C 453.261719 825.585938 452.214844 822.050781 449.917969 816.054688 C 448.777344 813.0625 447.339844 809.429688 445.476562 805.367188 Z M 374.59375 581.316406 C 374 573.203125 372.847656 564.058594 371.398438 554.011719 C 370.667969 548.992188 369.957031 543.722656 369.378906 538.203125 C 368.8125 532.679688 368.324219 526.90625 368.394531 520.789062 C 368.441406 517.726562 368.605469 514.570312 369.175781 511.324219 C 369.304688 510.515625 369.476562 509.6875 369.652344 508.871094 C 369.855469 508.027344 370.101562 507.042969 370.300781 506.386719 L 370.933594 504.234375 C 371.140625 503.5625 371.308594 502.894531 371.460938 502.21875 C 372.792969 496.796875 373.113281 491.28125 372.179688 485.628906 C 370.304688 474.324219 364.710938 462.601562 358.679688 450.988281 C 352.515625 439.378906 345.996094 427.546875 339.378906 415.761719 C 336.089844 409.851562 332.714844 403.992188 329.496094 398.054688 C 327.882812 395.089844 326.269531 392.136719 324.664062 389.191406 C 323.070312 386.3125 321.363281 383.035156 319.9375 379.894531 C 317.070312 373.488281 314.914062 366.847656 313.449219 360.15625 C 312.050781 353.449219 311.324219 346.714844 311.246094 340.121094 C 311.070312 326.917969 313.082031 314.3125 316.304688 302.875 C 319.519531 291.410156 323.746094 281.023438 328.210938 271.773438 C 337.273438 253.292969 347.132812 239.308594 354.359375 229.890625 C 361.679688 220.507812 366.398438 215.632812 366.398438 215.632812 C 366.398438 215.632812 362.195312 220.972656 355.851562 230.9375 C 352.652344 235.902344 348.929688 242.035156 345.027344 249.25 C 341.089844 256.433594 336.972656 264.714844 333.171875 274 C 329.339844 283.261719 325.765625 293.53125 323.289062 304.636719 C 320.816406 315.71875 319.265625 327.644531 319.949219 339.824219 C 320.613281 351.988281 323.445312 364.339844 328.886719 375.753906 C 330.300781 378.636719 331.710938 381.28125 333.46875 384.214844 C 335.167969 387.101562 336.867188 390 338.582031 392.902344 C 342.015625 398.695312 345.339844 404.589844 348.734375 410.453125 C 355.441406 422.222656 362.316406 433.929688 368.394531 445.988281 C 371.464844 452 374.378906 458.089844 376.914062 464.394531 C 379.429688 470.679688 381.578125 477.273438 382.429688 484.210938 C 383.367188 491.128906 382.699219 498.296875 380.882812 504.675781 C 380.667969 505.476562 380.4375 506.269531 380.175781 507.050781 L 379.457031 509.222656 C 379.191406 510.011719 379.078125 510.488281 378.902344 511.109375 C 378.746094 511.746094 378.582031 512.378906 378.453125 513.039062 C 377.929688 515.667969 377.589844 518.402344 377.402344 521.144531 C 376.699219 532.207031 377.851562 543.179688 378.417969 553.296875 C 379.0625 563.4375 379.65625 572.84375 379.355469 581.226562 C 379.148438 589.601562 378.183594 596.957031 376.457031 602.785156 C 374.8125 608.636719 372.40625 612.847656 370.472656 615.398438 C 369.507812 616.6875 368.695312 617.601562 368.125 618.199219 C 367.546875 618.789062 367.246094 619.085938 367.246094 619.085938 C 367.246094 619.085938 367.5 618.75 367.984375 618.082031 C 368.460938 617.421875 369.128906 616.40625 369.886719 615.03125 C 371.402344 612.273438 373.078125 607.953125 374.019531 602.230469 C 374.941406 596.507812 375.152344 589.425781 374.59375 581.316406 "/>
</g>
</g>
</g>
<g clip-path="url(#clip7)" clip-rule="nonzero">
<g clip-path="url(#clip8)" clip-rule="nonzero">
<g clip-path="url(#clip9)" clip-rule="nonzero">
<g clip-path="url(#clip10)" clip-rule="nonzero">
<g clip-path="url(#clip11)" clip-rule="nonzero">
<path style=" stroke:none;fill-rule:nonzero;fill:rgb(68.629456%,85.879517%,19.60907%);fill-opacity:1;" d="M 606.503906 984.136719 C 606.503906 984.136719 586.90625 965.101562 580.375 986.351562 C 573.84375 1007.601562 589.394531 1007.3125 629.667969 1034.660156 C 665.570312 1059.042969 667.640625 1084.207031 667.640625 1084.207031 C 667.640625 1084.207031 661.65625 978.519531 639.917969 964.582031 C 618.175781 950.648438 601.226562 956.722656 606.503906 984.136719 Z M 953.253906 772.8125 C 953.253906 772.8125 976.96875 786.378906 978.019531 764.164062 C 979.050781 741.964844 964.070312 746.117188 918.257812 729.632812 C 877.421875 714.9375 869.152344 691.078125 869.152344 691.078125 C 869.152344 691.078125 901.234375 791.96875 925.757812 800.0625 C 950.285156 808.144531 965.183594 798.050781 953.253906 772.8125 Z M 1184.640625 612.082031 C 1184.640625 612.082031 1159.277344 601.929688 1161.320312 624.0625 C 1163.367188 646.207031 1177.640625 640.011719 1225.28125 649.996094 C 1267.761719 658.882812 1279.253906 681.371094 1279.253906 681.371094 C 1279.253906 681.371094 1233.511719 585.90625 1208.097656 581.289062 C 1182.695312 576.671875 1169.332031 588.730469 1184.640625 612.082031 Z M 396.089844 533.578125 C 396.089844 533.578125 377.054688 553.175781 398.308594 559.707031 C 419.5625 566.238281 419.261719 550.683594 446.613281 510.421875 C 470.996094 474.527344 496.164062 472.457031 496.164062 472.457031 C 496.164062 472.457031 390.464844 478.429688 376.53125 500.167969 C 362.597656 521.90625 368.675781 538.855469 396.089844 533.578125 Z M 336.277344 778.441406 C 322.34375 800.179688 216.648438 806.152344 216.648438 806.152344 C 216.648438 806.152344 241.8125 804.082031 266.195312 768.1875 C 293.550781 727.917969 293.25 712.375 314.5 718.90625 C 335.753906 725.4375 316.722656 745.03125 316.722656 745.03125 C 344.136719 739.753906 350.210938 756.703125 336.277344 778.441406 "/>
</g>
</g>
</g>
</g>
</g>
<g clip-path="url(#clip12)" clip-rule="nonzero">
<g clip-path="url(#clip13)" clip-rule="nonzero">
<g clip-path="url(#clip14)" clip-rule="nonzero">
<path style=" stroke:none;fill-rule:nonzero;fill:rgb(20.779419%,54.508972%,24.308777%);fill-opacity:1;" d="M 1211.890625 606.042969 C 1212.265625 606.753906 1212.640625 607.464844 1213.011719 608.164062 C 1213.316406 608.890625 1213.75 609.5625 1214.011719 610.253906 C 1214.28125 610.945312 1214.636719 611.59375 1214.839844 612.230469 C 1215.054688 612.875 1215.308594 613.476562 1215.414062 614.046875 C 1215.566406 614.625 1215.710938 615.15625 1215.726562 615.628906 C 1215.753906 616.101562 1215.875 616.546875 1215.789062 616.886719 C 1215.71875 617.605469 1215.6875 618.023438 1215.6875 618.023438 C 1215.6875 618.023438 1215.878906 617.671875 1216.21875 616.980469 C 1216.425781 616.636719 1216.46875 616.1875 1216.574219 615.660156 C 1216.707031 615.125 1216.714844 614.527344 1216.679688 613.875 C 1216.667969 612.558594 1216.332031 611.066406 1215.835938 609.546875 C 1215.34375 608.019531 1214.597656 606.488281 1213.824219 604.980469 C 1212.984375 603.53125 1212.105469 602.09375 1211.164062 600.835938 C 1210.242188 599.566406 1209.316406 598.429688 1208.464844 597.507812 C 1206.785156 595.640625 1205.449219 594.601562 1205.449219 594.601562 C 1205.449219 594.601562 1206.210938 596.113281 1207.441406 598.25 C 1208.65625 600.402344 1210.335938 603.207031 1211.890625 606.042969 Z M 1244.480469 640.628906 C 1243.878906 639.898438 1243.175781 638.984375 1242.3125 637.976562 C 1241.40625 637.011719 1240.367188 635.9375 1239.210938 634.789062 C 1238.09375 633.585938 1236.6875 632.507812 1235.285156 631.273438 C 1233.898438 630.007812 1232.320312 628.828125 1230.65625 627.640625 C 1229.015625 626.410156 1227.246094 625.269531 1225.421875 624.148438 C 1223.628906 622.972656 1221.679688 621.984375 1219.789062 620.910156 C 1217.871094 619.871094 1215.878906 618.992188 1213.960938 618.046875 C 1211.996094 617.195312 1210.058594 616.351562 1208.15625 615.636719 C 1204.363281 614.164062 1200.722656 613.054688 1197.597656 612.167969 C 1194.472656 611.265625 1191.808594 610.753906 1189.949219 610.386719 C 1188.09375 610.027344 1187.015625 609.914062 1187.015625 609.914062 C 1187.015625 609.914062 1188.042969 610.230469 1189.847656 610.800781 C 1191.652344 611.34375 1194.183594 612.265625 1197.214844 613.34375 C 1200.261719 614.417969 1203.738281 615.851562 1207.425781 617.429688 C 1209.285156 618.199219 1211.132812 619.136719 1213.066406 619.976562 C 1214.941406 620.933594 1216.894531 621.820312 1218.75 622.863281 C 1220.152344 623.636719 1221.5625 624.382812 1222.9375 625.175781 C 1222.804688 625.796875 1222.644531 626.605469 1222.257812 627.503906 C 1222.0625 627.984375 1221.804688 628.488281 1221.5 628.976562 C 1221.207031 629.472656 1220.804688 629.910156 1220.390625 630.355469 C 1219.945312 630.769531 1219.464844 631.175781 1218.910156 631.496094 L 1218.070312 631.976562 C 1217.769531 632.113281 1217.441406 632.210938 1217.125 632.332031 C 1216.535156 632.625 1215.84375 632.75 1215.1875 632.902344 C 1214.539062 633.089844 1213.855469 633.15625 1213.195312 633.246094 C 1212.550781 633.339844 1211.910156 633.4375 1211.277344 633.445312 C 1210.660156 633.464844 1210.074219 633.519531 1209.519531 633.566406 C 1208.425781 633.605469 1207.496094 633.609375 1206.835938 633.660156 C 1206.179688 633.710938 1205.800781 633.738281 1205.800781 633.738281 C 1205.800781 633.738281 1206.148438 633.875 1206.777344 634.09375 C 1207.40625 634.292969 1208.304688 634.605469 1209.425781 634.839844 C 1210.558594 634.980469 1211.875 635.296875 1213.339844 635.183594 C 1214.074219 635.152344 1214.828125 635.207031 1215.601562 635 C 1216.371094 634.84375 1217.160156 634.726562 1217.917969 634.398438 C 1218.292969 634.238281 1218.675781 634.105469 1219.035156 633.921875 L 1220.085938 633.273438 C 1220.449219 633.078125 1220.746094 632.792969 1221.027344 632.507812 C 1221.308594 632.214844 1221.632812 631.976562 1221.847656 631.644531 C 1222.078125 631.320312 1222.308594 631.011719 1222.507812 630.703125 C 1222.683594 630.371094 1222.828125 630.03125 1222.972656 629.707031 C 1223.25 629.066406 1223.402344 628.417969 1223.480469 627.832031 C 1223.636719 626.875 1223.5625 626.113281 1223.472656 625.484375 C 1223.75 625.648438 1224.042969 625.796875 1224.3125 625.976562 C 1226.105469 627.070312 1227.917969 628.082031 1229.546875 629.246094 C 1231.207031 630.363281 1232.84375 631.398438 1234.285156 632.539062 C 1235.738281 633.65625 1237.207031 634.621094 1238.375 635.722656 C 1239.574219 636.777344 1240.714844 637.714844 1241.722656 638.550781 C 1242.6875 639.445312 1243.484375 640.257812 1244.160156 640.917969 C 1245.535156 642.222656 1246.320312 642.964844 1246.320312 642.964844 C 1246.320312 642.964844 1245.644531 642.113281 1244.480469 640.628906 Z M 653.113281 1038.539062 C 652.574219 1037.101562 651.660156 1035.660156 650.769531 1034.011719 C 649.902344 1032.34375 648.726562 1030.707031 647.597656 1028.890625 C 646.460938 1027.066406 645.101562 1025.277344 643.742188 1023.382812 C 640.976562 1019.632812 637.8125 1015.8125 634.589844 1012.039062 C 631.992188 1009.09375 629.363281 1006.226562 626.773438 1003.488281 C 626.800781 1003.386719 626.828125 1003.292969 626.855469 1003.183594 C 627.070312 1002.289062 627.519531 1001 627.734375 999.421875 C 628 997.855469 628.304688 996.011719 628.449219 994.039062 C 628.644531 992.058594 628.769531 989.949219 628.832031 987.839844 C 628.976562 983.613281 628.816406 979.394531 628.5625 976.234375 C 628.457031 974.652344 628.25 973.339844 628.160156 972.417969 C 628.039062 971.496094 627.945312 970.96875 627.945312 970.96875 C 627.945312 970.96875 627.84375 971.5 627.730469 972.414062 C 627.632812 973.339844 627.4375 974.644531 627.300781 976.226562 C 626.996094 979.378906 626.777344 983.582031 626.621094 987.769531 C 626.601562 989.871094 626.511719 991.960938 626.503906 993.9375 C 626.496094 995.898438 626.484375 997.734375 626.46875 999.308594 C 626.507812 1000.890625 626.457031 1002.191406 626.433594 1003.117188 C 626.433594 1003.117188 626.433594 1003.117188 626.429688 1003.128906 C 625.875 1002.527344 625.296875 1001.902344 624.738281 1001.328125 C 621.515625 997.980469 618.386719 994.984375 615.710938 992.410156 C 613.046875 989.828125 610.6875 987.804688 609.085938 986.355469 C 607.464844 984.921875 606.503906 984.136719 606.503906 984.136719 C 606.503906 984.136719 609.832031 987.792969 614.828125 993.285156 C 617.355469 995.988281 620.210938 999.230469 623.320312 1002.652344 C 624.9375 1004.449219 626.613281 1006.324219 628.300781 1008.222656 C 627.460938 1008.078125 626.375 1007.894531 625.085938 1007.6875 C 623.613281 1007.445312 621.898438 1007.175781 620.054688 1006.878906 C 618.222656 1006.550781 616.261719 1006.269531 614.328125 1005.867188 C 612.386719 1005.539062 610.472656 1005.09375 608.675781 1004.683594 C 606.890625 1004.25 605.242188 1003.773438 603.828125 1003.332031 C 603.125 1003.109375 602.507812 1002.839844 601.929688 1002.644531 C 601.355469 1002.453125 600.890625 1002.226562 600.488281 1002.039062 C 599.683594 1001.683594 599.214844 1001.476562 599.214844 1001.476562 C 599.214844 1001.476562 599.597656 1001.824219 600.257812 1002.410156 C 600.59375 1002.703125 601 1003.078125 601.535156 1003.386719 C 602.0625 1003.722656 602.640625 1004.152344 603.320312 1004.496094 C 604.671875 1005.230469 606.324219 1005.953125 608.132812 1006.554688 C 609.054688 1006.820312 609.980469 1007.179688 610.964844 1007.378906 C 611.9375 1007.609375 612.929688 1007.859375 613.921875 1008.039062 C 617.925781 1008.777344 621.972656 1009.023438 624.992188 1008.953125 C 626.5625 1008.917969 627.855469 1008.816406 628.730469 1008.714844 C 630.128906 1010.296875 631.535156 1011.878906 632.921875 1013.484375 C 634.527344 1015.359375 636.121094 1017.226562 637.699219 1019.070312 C 639.199219 1020.96875 640.785156 1022.75 642.203125 1024.574219 C 643.574219 1026.414062 645.054688 1028.09375 646.269531 1029.816406 C 647.492188 1031.527344 648.769531 1033.085938 649.707031 1034.664062 C 650.652344 1036.230469 651.71875 1037.578125 652.375 1038.914062 C 653.058594 1040.230469 653.789062 1041.34375 654.175781 1042.34375 C 654.964844 1044.351562 655.417969 1045.496094 655.417969 1045.496094 C 655.417969 1045.496094 655.109375 1044.296875 654.582031 1042.183594 C 654.285156 1041.128906 653.671875 1039.953125 653.113281 1038.539062 Z M 472.921875 476.996094 C 471.125 477.796875 469.085938 478.699219 466.886719 479.734375 C 464.664062 480.722656 462.359375 481.992188 459.871094 483.246094 C 457.371094 484.492188 454.804688 485.914062 452.1875 487.457031 C 449.535156 488.949219 446.875 490.617188 444.160156 492.304688 C 441.433594 493.953125 438.753906 495.777344 436.039062 497.554688 C 433.347656 499.363281 430.757812 501.3125 428.15625 503.152344 C 427.855469 503.375 427.570312 503.589844 427.277344 503.816406 C 427.144531 503.75 427.027344 503.699219 426.878906 503.628906 C 425.953125 503.25 424.640625 502.667969 423.011719 502.125 C 421.382812 501.5625 419.449219 501.011719 417.351562 500.535156 C 416.292969 500.332031 415.214844 500.046875 414.089844 499.914062 C 412.96875 499.742188 411.832031 499.574219 410.675781 499.472656 C 409.527344 499.367188 408.363281 499.324219 407.226562 499.308594 C 406.089844 499.230469 404.960938 499.375 403.875 499.417969 C 402.792969 499.449219 401.734375 499.707031 400.75 499.847656 C 399.765625 500.003906 398.855469 500.335938 398.019531 500.566406 C 397.175781 500.792969 396.453125 501.210938 395.816406 501.484375 C 395.160156 501.753906 394.644531 502.109375 394.230469 502.402344 C 393.386719 502.976562 392.945312 503.316406 392.945312 503.316406 C 392.945312 503.316406 393.5 503.136719 394.425781 502.785156 C 394.878906 502.601562 395.421875 502.371094 396.097656 502.261719 C 396.777344 502.140625 397.496094 501.902344 398.324219 501.800781 C 399.15625 501.71875 400.027344 501.539062 400.980469 501.480469 C 401.9375 501.460938 402.921875 501.34375 403.964844 501.367188 C 406.039062 501.375 408.257812 501.429688 410.480469 501.675781 C 412.699219 501.832031 414.90625 502.179688 416.996094 502.449219 C 419.078125 502.761719 421.027344 503.074219 422.699219 503.355469 C 424.488281 503.65625 425.941406 503.898438 426.925781 504.070312 C 424.800781 505.671875 422.707031 507.246094 420.671875 508.78125 C 415.867188 512.5 411.546875 516.175781 407.886719 519.351562 C 404.210938 522.53125 401.300781 525.347656 399.246094 527.296875 C 397.210938 529.261719 396.097656 530.433594 396.097656 530.433594 C 396.097656 530.433594 397.351562 529.414062 399.535156 527.613281 C 401.703125 525.796875 404.886719 523.308594 408.675781 520.3125 C 410.574219 518.804688 412.636719 517.195312 414.855469 515.53125 C 415.375 515.140625 415.921875 514.734375 416.453125 514.339844 C 416.4375 514.957031 416.433594 515.792969 416.4375 516.785156 C 416.4375 517.835938 416.4375 519.0625 416.445312 520.378906 C 416.449219 521.683594 416.453125 523.0625 416.417969 524.445312 C 416.414062 525.832031 416.320312 527.195312 416.246094 528.488281 C 416.148438 529.769531 416.003906 530.960938 415.875 531.996094 C 415.683594 533.011719 415.574219 533.894531 415.402344 534.488281 C 415.28125 535.109375 415.207031 535.464844 415.207031 535.464844 C 415.207031 535.464844 415.433594 535.195312 415.804688 534.667969 C 415.972656 534.398438 416.25 534.09375 416.429688 533.691406 C 416.632812 533.296875 416.871094 532.84375 417.101562 532.34375 C 417.515625 531.328125 417.914062 530.097656 418.179688 528.746094 C 418.445312 527.398438 418.578125 525.945312 418.628906 524.492188 C 418.621094 523.035156 418.582031 521.585938 418.386719 520.25 C 418.226562 518.90625 417.960938 517.671875 417.6875 516.617188 C 417.398438 515.503906 417.082031 514.628906 416.839844 514.042969 C 418.464844 512.832031 420.109375 511.589844 421.832031 510.308594 C 424.265625 508.53125 426.792969 506.6875 429.359375 504.820312 C 431.976562 503.035156 434.582031 501.136719 437.285156 499.386719 C 439.953125 497.585938 442.582031 495.726562 445.273438 494.046875 C 447.9375 492.328125 450.554688 490.632812 453.160156 489.113281 C 455.757812 487.570312 458.226562 486.003906 460.644531 484.667969 C 463.054688 483.300781 465.292969 481.925781 467.453125 480.84375 C 469.59375 479.738281 471.546875 478.683594 473.273438 477.742188 C 475.046875 476.875 476.578125 476.121094 477.84375 475.5 C 480.378906 474.242188 481.824219 473.519531 481.824219 473.519531 C 481.824219 473.519531 480.320312 474.09375 477.675781 475.101562 C 476.355469 475.625 474.757812 476.265625 472.921875 476.996094 Z M 1179.699219 605.375 C 1179.113281 604.78125 1178.484375 604.140625 1177.792969 603.488281 C 1177.105469 602.824219 1176.402344 602.085938 1175.554688 601.476562 C 1174.722656 600.847656 1173.898438 600.125 1172.984375 599.515625 C 1172.027344 598.9375 1171.0625 598.355469 1170.097656 597.777344 C 1169.039062 597.324219 1168.03125 596.808594 1166.964844 596.445312 C 1165.867188 596.132812 1164.808594 595.773438 1163.714844 595.675781 C 1162.640625 595.46875 1161.570312 595.535156 1160.574219 595.585938 C 1159.578125 595.730469 1158.636719 595.886719 1157.828125 596.25 C 1157 596.511719 1156.320312 596.964844 1155.746094 597.351562 C 1155.179688 597.761719 1154.730469 598.164062 1154.390625 598.527344 C 1153.730469 599.25 1153.488281 599.757812 1153.488281 599.757812 C 1153.488281 599.757812 1153.886719 599.363281 1154.667969 598.847656 C 1155.058594 598.582031 1155.558594 598.3125 1156.148438 598.066406 C 1156.757812 597.84375 1157.417969 597.585938 1158.183594 597.460938 C 1158.933594 597.257812 1159.78125 597.277344 1160.652344 597.230469 C 1161.53125 597.300781 1162.445312 597.355469 1163.386719 597.59375 C 1164.339844 597.710938 1165.265625 598.167969 1166.242188 598.453125 C 1167.191406 598.796875 1168.121094 599.308594 1169.078125 599.730469 C 1169.988281 600.265625 1170.910156 600.792969 1171.816406 601.3125 C 1172.6875 601.894531 1173.550781 602.472656 1174.375 603.035156 C 1176.054688 604.144531 1177.480469 605.390625 1178.839844 606.308594 C 1180.085938 607.355469 1181.183594 608.175781 1181.933594 608.78125 C 1182.6875 609.367188 1183.15625 609.6875 1183.15625 609.6875 C 1183.15625 609.6875 1182.839844 609.234375 1182.238281 608.476562 C 1181.621094 607.738281 1180.800781 606.617188 1179.699219 605.375 Z M 979.496094 779.472656 C 979.085938 778.710938 978.621094 777.988281 978.113281 777.277344 C 977.628906 776.558594 977.050781 775.90625 976.476562 775.242188 C 975.878906 774.605469 975.261719 773.980469 974.558594 773.441406 C 973.882812 772.886719 973.148438 772.382812 972.390625 771.933594 C 971.636719 771.472656 970.835938 771.109375 970.019531 770.75 C 966.734375 769.402344 963.113281 769.054688 959.609375 769.355469 C 957.855469 769.496094 956.132812 769.851562 954.429688 770.308594 C 952.914062 770.730469 951.449219 771.238281 949.96875 771.890625 C 944.886719 769.195312 939.898438 766.253906 934.929688 763.332031 C 932.941406 762.167969 930.988281 760.972656 929.03125 759.765625 C 929.644531 759.292969 930.539062 758.609375 931.675781 757.867188 C 932.746094 757.148438 934.03125 756.386719 935.449219 755.667969 C 936.160156 755.292969 936.90625 754.96875 937.671875 754.644531 C 938.417969 754.273438 939.234375 754.023438 940.019531 753.738281 C 941.609375 753.167969 943.257812 752.792969 944.8125 752.441406 C 945.605469 752.316406 946.363281 752.183594 947.085938 752.066406 C 947.8125 751.921875 948.515625 751.925781 949.15625 751.828125 C 949.804688 751.78125 950.40625 751.660156 950.929688 751.667969 C 951.464844 751.636719 951.929688 751.609375 952.320312 751.59375 C 953.097656 751.527344 953.546875 751.480469 953.546875 751.480469 C 953.546875 751.480469 953.109375 751.363281 952.363281 751.152344 C 951.601562 750.964844 950.515625 750.648438 949.164062 750.558594 C 948.492188 750.511719 947.753906 750.367188 946.980469 750.417969 C 946.207031 750.441406 945.378906 750.421875 944.53125 750.515625 C 943.691406 750.648438 942.808594 750.71875 941.925781 750.917969 C 941.0625 751.167969 940.164062 751.339844 939.300781 751.652344 C 938.453125 751.980469 937.585938 752.28125 936.792969 752.699219 C 935.964844 753.0625 935.210938 753.535156 934.492188 753.980469 C 933.738281 754.40625 933.113281 754.957031 932.484375 755.40625 C 931.894531 755.917969 931.332031 756.394531 930.867188 756.890625 C 929.816406 757.941406 929.113281 758.902344 928.691406 759.566406 C 925.714844 757.734375 922.765625 755.867188 919.863281 753.925781 C 914.957031 750.628906 910.042969 747.316406 905.398438 743.640625 C 900.75 740 896.230469 736.148438 892.257812 731.726562 C 893.148438 732.90625 894.054688 734.09375 895.035156 735.21875 C 896.019531 736.335938 897.027344 737.441406 898.074219 738.5 C 900.152344 740.640625 902.328125 742.695312 904.601562 744.617188 C 909.148438 748.476562 913.867188 752.15625 918.78125 755.515625 C 918.839844 755.558594 918.898438 755.59375 918.957031 755.636719 C 918.59375 756.140625 918.109375 756.890625 917.65625 757.882812 C 917.191406 758.851562 916.792969 760.050781 916.515625 761.375 C 916.253906 762.710938 916.144531 764.183594 916.265625 765.648438 C 916.324219 766.386719 916.449219 767.113281 916.628906 767.816406 C 916.75 768.535156 917.058594 769.1875 917.3125 769.828125 C 917.515625 770.484375 917.910156 771.042969 918.214844 771.585938 C 918.507812 772.140625 918.886719 772.597656 919.25 773.003906 C 919.910156 773.863281 920.625 774.417969 921.121094 774.800781 C 921.617188 775.179688 921.910156 775.378906 921.910156 775.378906 C 921.910156 775.378906 921.742188 775.0625 921.457031 774.511719 C 921.304688 774.25 921.128906 773.933594 920.917969 773.566406 C 920.707031 773.222656 920.550781 772.765625 920.324219 772.320312 C 920.101562 771.871094 919.875 771.382812 919.695312 770.847656 C 919.511719 770.3125 919.277344 769.773438 919.144531 769.171875 C 918.976562 768.597656 918.820312 767.988281 918.722656 767.367188 C 918.582031 766.742188 918.5 766.109375 918.472656 765.460938 C 918.320312 764.179688 918.378906 762.871094 918.445312 761.644531 C 918.539062 760.417969 918.6875 759.261719 918.867188 758.257812 C 919.039062 757.292969 919.203125 756.480469 919.335938 755.890625 C 924.070312 759.125 928.90625 762.226562 933.816406 765.199219 C 938.914062 768.277344 944.140625 771.128906 949.441406 773.882812 L 949.886719 774.117188 L 950.347656 773.886719 C 951.773438 773.195312 953.378906 772.613281 954.953125 772.160156 C 956.539062 771.691406 958.167969 771.382812 959.800781 771.15625 C 963.0625 770.730469 966.433594 770.917969 969.53125 772.023438 C 972.613281 773.148438 975.347656 775.179688 977.464844 777.773438 C 978 778.414062 978.507812 779.085938 978.953125 779.804688 C 979.457031 780.484375 979.828125 781.25 980.25 781.984375 C 981.03125 783.472656 981.726562 785.03125 982.339844 786.628906 C 981.875 784.988281 981.371094 783.351562 980.65625 781.777344 C 980.277344 781.007812 979.957031 780.210938 979.496094 779.472656 Z M 602.175781 980.535156 C 601.832031 979.867188 601.519531 979.0625 601.105469 978.238281 C 600.6875 977.40625 600.316406 976.484375 599.964844 975.492188 C 599.582031 974.507812 599.1875 973.480469 598.886719 972.367188 C 598.539062 971.277344 598.230469 970.140625 597.984375 968.960938 C 597.675781 967.800781 597.460938 966.59375 597.304688 965.386719 C 596.871094 962.980469 596.742188 960.539062 596.621094 958.238281 C 596.648438 957.085938 596.554688 955.96875 596.605469 954.914062 C 596.628906 953.855469 596.65625 952.851562 596.710938 951.921875 C 596.824219 950.066406 596.925781 948.503906 597.082031 947.417969 C 597.226562 946.335938 597.304688 945.703125 597.304688 945.703125 C 597.304688 945.703125 596.222656 948.011719 595.457031 951.757812 C 595.039062 953.617188 594.800781 955.839844 594.675781 958.226562 C 594.679688 959.425781 594.617188 960.667969 594.714844 961.925781 C 594.828125 963.183594 594.886719 964.464844 595.117188 965.722656 C 595.304688 966.992188 595.5625 968.253906 595.90625 969.464844 C 596.171875 970.710938 596.632812 971.871094 597.046875 973 C 597.410156 974.144531 597.957031 975.183594 598.457031 976.160156 C 598.703125 976.648438 598.9375 977.132812 599.179688 977.589844 C 599.460938 978.027344 599.730469 978.4375 599.992188 978.839844 C 600.519531 979.640625 600.996094 980.378906 601.480469 980.984375 C 601.984375 981.570312 602.425781 982.082031 602.792969 982.5 C 603.523438 983.332031 603.964844 983.78125 603.964844 983.78125 C 603.964844 983.78125 603.675781 983.210938 603.140625 982.253906 C 602.875 981.777344 602.546875 981.195312 602.175781 980.535156 Z M 381.976562 544.988281 C 382.246094 544.371094 382.523438 543.757812 382.910156 543.195312 C 383.601562 542.035156 384.183594 540.789062 384.96875 539.789062 C 385.339844 539.28125 385.675781 538.753906 386.003906 538.265625 C 386.304688 537.746094 386.640625 537.304688 386.996094 536.929688 C 388.335938 535.363281 389.152344 534.113281 389.152344 534.113281 C 389.152344 534.113281 387.890625 534.753906 386.097656 536.035156 C 385.871094 536.191406 385.632812 536.355469 385.390625 536.527344 C 385.175781 536.726562 384.980469 536.953125 384.757812 537.167969 C 384.332031 537.625 383.863281 538.09375 383.414062 538.621094 C 382.972656 539.136719 382.445312 539.636719 382.109375 540.273438 C 381.742188 540.886719 381.355469 541.511719 380.972656 542.140625 C 380.222656 543.390625 379.773438 544.792969 379.269531 546.054688 C 379.070312 546.710938 378.9375 547.359375 378.796875 547.964844 C 378.636719 548.5625 378.527344 549.136719 378.484375 549.6875 C 378.339844 550.761719 378.308594 551.667969 378.339844 552.308594 C 378.347656 552.9375 378.417969 553.296875 378.417969 553.296875 C 378.417969 553.296875 378.542969 552.957031 378.773438 552.367188 C 378.980469 551.78125 379.324219 550.96875 379.710938 550 C 380.066406 549.023438 380.625 547.9375 381.085938 546.75 C 381.375 546.179688 381.703125 545.59375 381.976562 544.988281 Z M 333.105469 764.15625 C 333.925781 764.210938 334.683594 764.480469 335.460938 764.6875 C 334.660156 764.601562 333.851562 764.46875 333.058594 764.53125 C 332.269531 764.515625 331.476562 764.570312 330.675781 764.644531 C 329.082031 764.742188 327.496094 765.03125 325.90625 765.226562 C 322.742188 765.640625 319.582031 766.242188 316.429688 766.832031 C 310.1875 767.964844 303.945312 769.214844 297.726562 770.472656 C 294.722656 773.511719 291.519531 776.457031 288.203125 779.28125 C 284.824219 782.078125 281.3125 784.726562 277.714844 787.132812 C 275.957031 788.410156 274.070312 789.445312 272.269531 790.5625 C 270.476562 791.703125 268.617188 792.675781 266.78125 793.609375 C 263.183594 795.632812 259.417969 797.027344 255.933594 798.453125 C 252.339844 799.621094 248.996094 800.886719 245.757812 801.542969 C 244.160156 801.929688 242.628906 802.296875 241.175781 802.652344 C 239.691406 802.863281 238.285156 803.070312 236.960938 803.253906 C 235.640625 803.449219 234.40625 803.621094 233.265625 803.789062 C 232.121094 803.929688 231.054688 803.921875 230.09375 803.996094 C 226.28125 804.171875 224.101562 804.269531 224.101562 804.269531 C 224.101562 804.269531 226.269531 804.019531 230.058594 803.566406 C 231 803.449219 232.050781 803.382812 233.1875 803.175781 C 234.300781 802.953125 235.519531 802.703125 236.820312 802.445312 C 238.113281 802.183594 239.496094 801.902344 240.949219 801.613281 C 242.375 801.207031 243.875 800.78125 245.4375 800.339844 C 248.609375 799.582031 251.855469 798.210938 255.347656 796.949219 C 258.734375 795.421875 262.355469 793.902344 265.890625 791.914062 C 267.679688 790.976562 269.496094 790.007812 271.242188 788.855469 C 273.003906 787.742188 274.839844 786.703125 276.546875 785.425781 C 280.058594 783.027344 283.488281 780.375 286.785156 777.589844 C 290.113281 774.828125 293.328125 771.921875 296.363281 768.921875 C 297.859375 764.734375 299.191406 760.429688 300.277344 756.097656 C 300.851562 753.890625 301.21875 751.65625 301.539062 749.417969 C 301.710938 748.292969 301.773438 747.164062 301.820312 746.03125 L 301.765625 744.332031 L 301.53125 742.632812 L 302.042969 744.289062 L 302.316406 746.007812 C 302.410156 747.164062 302.492188 748.332031 302.457031 749.488281 C 302.4375 751.804688 302.125 754.117188 301.746094 756.394531 C 301.355469 758.667969 300.921875 760.949219 300.3125 763.179688 C 300.089844 763.996094 299.867188 764.800781 299.636719 765.613281 C 301.484375 763.691406 303.296875 761.761719 305.050781 759.867188 C 307.753906 756.800781 310.570312 753.984375 312.871094 751.136719 C 315.195312 748.261719 317.035156 745.265625 318.863281 742.519531 C 320.664062 739.78125 322.839844 737.386719 325.332031 736.164062 C 327.796875 734.914062 330.199219 734.707031 332.097656 734.5 C 334.023438 734.417969 335.523438 734.457031 336.542969 734.558594 C 337.5625 734.628906 338.101562 734.660156 338.101562 734.660156 C 338.101562 734.660156 337.558594 734.664062 336.539062 734.679688 C 336.023438 734.695312 335.394531 734.683594 334.65625 734.722656 C 333.917969 734.777344 333.082031 734.847656 332.132812 734.925781 C 330.277344 735.234375 327.957031 735.582031 325.71875 736.890625 C 323.464844 738.171875 321.605469 740.457031 319.902344 743.199219 C 318.199219 745.953125 316.433594 749.082031 314.144531 752.121094 C 311.828125 755.179688 309.171875 758.070312 306.480469 761.148438 C 304.515625 763.324219 302.46875 765.546875 300.359375 767.753906 C 305.589844 766.660156 310.839844 765.699219 316.132812 764.972656 C 319.34375 764.578125 322.554688 764.230469 325.796875 764.035156 C 327.414062 763.9375 329.035156 763.917969 330.65625 763.980469 C 331.46875 763.992188 332.289062 764.046875 333.105469 764.15625 "/>
</g>
</g>
</g>
</g>
</svg>
