<?xml version="1.0" standalone="no"?>
<!DOCTYPE svg PUBLIC "-//W3C//DTD SVG 20010904//EN"
 "http://www.w3.org/TR/2001/REC-SVG-20010904/DTD/svg10.dtd">
<svg version="1.0" xmlns="http://www.w3.org/2000/svg"
 width="1000.000000pt" height="1000.000000pt" viewBox="0 0 1000.000000 1000.000000"
 preserveAspectRatio="xMidYMid meet">

<g transform="translate(0.000000,1000.000000) scale(0.100000,-0.100000)"
fill="#000000" stroke="none">
<path d="M5572 690 c0 -14 2 -19 5 -12 2 6 2 18 0 25 -3 6 -5 1 -5 -13z"/>
<path d="M9171 694 c0 -11 3 -14 6 -6 3 7 2 16 -1 19 -3 4 -6 -2 -5 -13z"/>
<path d="M2731 674 c0 -11 3 -14 6 -6 3 7 2 16 -1 19 -3 4 -6 -2 -5 -13z"/>
<path d="M2101 664 c0 -11 3 -14 6 -6 3 7 2 16 -1 19 -3 4 -6 -2 -5 -13z"/>
<path d="M9791 664 c0 -11 3 -14 6 -6 3 7 2 16 -1 19 -3 4 -6 -2 -5 -13z"/>
<path d="M9161 654 c0 -11 3 -14 6 -6 3 7 2 16 -1 19 -3 4 -6 -2 -5 -13z"/>
<path d="M4922 635 c0 -16 2 -22 5 -12 2 9 2 23 0 30 -3 6 -5 -1 -5 -18z"/>
<path d="M5561 644 c0 -11 3 -14 6 -6 3 7 2 16 -1 19 -3 4 -6 -2 -5 -13z"/>
<path d="M1452 600 c0 -14 2 -19 5 -12 2 6 2 18 0 25 -3 6 -5 1 -5 -13z"/>
<path d="M6791 594 c0 -11 3 -14 6 -6 3 7 2 16 -1 19 -3 4 -6 -2 -5 -13z"/>
<path d="M8512 590 c0 -14 2 -19 5 -12 2 6 2 18 0 25 -3 6 -5 1 -5 -13z"/>
<path d="M4912 580 c0 -14 2 -19 5 -12 2 6 2 18 0 25 -3 6 -5 1 -5 -13z"/>
<path d="M3321 574 c0 -11 3 -14 6 -6 3 7 2 16 -1 19 -3 4 -6 -2 -5 -13z"/>
<path d="M1441 544 c0 -11 3 -14 6 -6 3 7 2 16 -1 19 -3 4 -6 -2 -5 -13z"/>
<path d="M4252 510 c0 -19 2 -27 5 -17 2 9 2 25 0 35 -3 9 -5 1 -5 -18z"/>
<path d="M7852 510 c0 -14 2 -19 5 -12 2 6 2 18 0 25 -3 6 -5 1 -5 -13z"/>
<path d="M782 460 c0 -19 2 -27 5 -17 2 9 2 25 0 35 -3 9 -5 1 -5 -18z"/>
<path d="M7842 435 c0 -16 2 -22 5 -12 2 9 2 23 0 30 -3 6 -5 -1 -5 -18z"/>
<path d="M4242 425 c0 -16 2 -22 5 -12 2 9 2 23 0 30 -3 6 -5 -1 -5 -18z"/>
<path d="M1857 318 c-15 -57 -36 -143 -47 -193 -12 -50 -23 -98 -26 -107 -5
-15 1 -18 39 -18 l44 0 7 48 c8 66 20 372 14 372 -3 0 -17 -46 -31 -102z"/>
<path d="M5941 342 c-13 -42 -40 -137 -61 -210 l-38 -133 42 3 41 3 12 75 c12
79 35 331 30 337 -2 1 -14 -32 -26 -75z"/>
<path d="M9522 283 c-23 -76 -50 -171 -61 -210 l-20 -73 39 0 c28 0 40 5 44
18 14 45 51 402 42 402 -2 0 -21 -62 -44 -137z"/>
<path d="M5301 235 c-24 -99 -47 -192 -52 -207 -8 -28 -7 -28 36 -28 42 0 44
2 49 33 12 70 22 275 17 327 -6 55 -6 55 -50 -125z"/>
<path d="M8922 328 c-12 -46 -33 -130 -46 -189 -14 -58 -28 -113 -32 -122 -5
-14 1 -17 39 -17 41 0 45 2 51 28 8 35 21 382 14 382 -3 0 -15 -37 -26 -82z"/>
<path d="M2492 398 c-1 -4 -27 -93 -57 -199 -30 -105 -55 -193 -55 -195 0 -2
18 -4 39 -4 46 0 42 -10 66 172 9 65 14 143 12 175 -2 32 -4 55 -5 51z"/>
<path d="M2082 370 c0 -14 2 -19 5 -12 2 6 2 18 0 25 -3 6 -5 1 -5 -13z"/>
<path d="M9142 355 c0 -16 2 -22 5 -12 2 9 2 23 0 30 -3 6 -5 -1 -5 -18z"/>
<path d="M4698 305 c-9 -38 -24 -110 -33 -160 -8 -50 -18 -102 -21 -118 -5
-26 -4 -27 40 -27 l46 0 -1 128 c-1 70 -4 154 -8 187 l-7 60 -16 -70z"/>
<path d="M5514 185 c-24 -143 -27 -185 -17 -185 7 0 15 10 17 23 8 36 37 339
34 343 -2 2 -17 -80 -34 -181z"/>
<path d="M1217 225 c-15 -77 -30 -159 -33 -182 l-7 -43 42 0 41 0 1 78 c2 128
-2 230 -10 260 -6 21 -13 -3 -34 -113z"/>
<path d="M8308 350 c-10 -25 -26 -99 -43 -200 -8 -52 -18 -107 -21 -122 -5
-27 -4 -28 34 -28 33 0 41 4 46 23 14 53 -1 365 -16 327z"/>
<path d="M103 295 c0 -33 2 -45 4 -27 2 18 2 45 0 60 -2 15 -4 0 -4 -33z"/>
<path d="M1442 227 c-14 -143 -15 -227 -3 -227 8 0 26 338 19 346 -2 2 -10
-52 -16 -119z"/>
<path d="M3572 325 c0 -16 2 -22 5 -12 2 9 2 23 0 30 -3 6 -5 -1 -5 -18z"/>
<path d="M2682 320 c0 -14 2 -19 5 -12 2 6 2 18 0 25 -3 6 -5 1 -5 -13z"/>
<path d="M6500 183 c-29 -87 -55 -164 -58 -170 -3 -9 7 -13 31 -13 l35 0 15
93 c18 108 35 241 32 245 -2 2 -27 -68 -55 -155z"/>
<path d="M2052 190 c-13 -80 -26 -155 -29 -167 -4 -17 -1 -23 11 -23 9 0 16 4
16 9 0 5 7 72 16 150 21 192 14 207 -14 31z"/>
<path d="M3032 172 c-29 -87 -52 -161 -52 -165 0 -5 15 -7 32 -5 32 3 33 5 45
68 14 77 35 252 30 256 -1 2 -26 -68 -55 -154z"/>
<path d="M8502 205 c-14 -154 -15 -205 -3 -205 10 0 25 241 19 300 -1 19 -9
-23 -16 -95z"/>
<path d="M6142 300 c0 -14 2 -19 5 -12 2 6 2 18 0 25 -3 6 -5 1 -5 -13z"/>
<path d="M9111 173 c-13 -81 -26 -154 -29 -160 -2 -7 3 -13 11 -13 9 0 17 13
20 33 11 58 29 265 25 277 -2 6 -14 -55 -27 -137z"/>
<path d="M9741 304 c0 -11 3 -14 6 -6 3 7 2 16 -1 19 -3 4 -6 -2 -5 -13z"/>
<path d="M4902 190 c-14 -148 -15 -190 -3 -190 11 0 24 181 19 260 -2 45 -5
32 -16 -70z"/>
<path d="M2647 159 c-15 -71 -30 -136 -34 -144 -3 -9 1 -15 10 -15 11 0 20 33
36 141 13 77 21 142 19 144 -2 2 -16 -54 -31 -126z"/>
<path d="M4270 169 c0 -68 -3 -134 -6 -146 -5 -17 -2 -23 10 -23 15 0 16 14
10 142 -4 79 -8 145 -10 147 -2 2 -4 -52 -4 -120z"/>
<path d="M9706 145 c-25 -118 -28 -161 -12 -144 7 7 47 250 44 266 -2 8 -16
-47 -32 -122z"/>
<path d="M582 195 c-7 -44 -15 -106 -18 -137 l-7 -58 38 0 38 0 -7 77 c-4 43
-13 105 -20 138 l-13 60 -11 -80z"/>
<path d="M6107 141 c-26 -118 -29 -156 -12 -139 8 8 47 238 43 256 -2 8 -16
-45 -31 -117z"/>
<path d="M7636 138 c-9 -68 -16 -126 -16 -130 0 -5 17 -8 38 -8 l38 0 -7 72
c-8 74 -26 178 -33 185 -2 2 -11 -52 -20 -119z"/>
<path d="M7870 178 c0 -47 -3 -106 -6 -132 -6 -38 -4 -46 9 -46 15 0 16 14 10
127 -3 71 -7 130 -9 132 -2 2 -4 -34 -4 -81z"/>
<path d="M4041 158 c-6 -51 -14 -108 -17 -125 -5 -33 -4 -33 35 -33 l41 0 -6
47 c-8 78 -26 177 -34 191 -4 8 -12 -28 -19 -80z"/>
<path d="M807 161 c-11 -98 -9 -161 6 -161 9 0 11 23 9 87 -4 132 -7 144 -15
74z"/>
<path d="M6711 184 c0 -11 3 -14 6 -6 3 7 2 16 -1 19 -3 4 -6 -2 -5 -13z"/>
<path d="M3225 102 c-10 -42 -20 -83 -22 -90 -3 -6 -1 -12 5 -12 9 0 47 168
40 176 -3 2 -13 -31 -23 -74z"/>
<path d="M3630 146 c0 -8 -4 -16 -9 -18 -10 -3 -2 -128 8 -128 3 0 7 36 7 80
1 44 0 80 -2 80 -2 0 -4 -6 -4 -14z"/>
<path d="M6684 79 c-11 -43 -17 -79 -13 -79 9 0 14 15 29 93 17 86 8 78 -16
-14z"/>
<path d="M7216 75 c3 -38 8 -72 10 -74 12 -13 12 13 -1 75 l-15 69 6 -70z"/>
<path d="M152 75 c0 -22 3 -49 8 -60 l9 -20 0 20 c0 11 -4 38 -8 60 l-9 40 0
-40z"/>
<path d="M7047 26 c-4 -10 -5 -21 -2 -24 9 -9 17 6 13 25 -3 17 -4 17 -11 -1z"/>
</g>
</svg>
