<?xml version="1.0" encoding="UTF-8"?>
<svg xmlns="http://www.w3.org/2000/svg" xmlns:xlink="http://www.w3.org/1999/xlink" width="1440pt" height="1349.999938pt" viewBox="0 0 1440 1349.999938" version="1.2">
<defs>
<clipPath id="clip1">
  <path d="M 51.949219 181 L 1387.179688 181 L 1387.179688 1168.632812 L 51.949219 1168.632812 Z M 51.949219 181 "/>
</clipPath>
<clipPath id="clip2">
  <path d="M 960 180.640625 L 1352 180.640625 L 1352 269 L 960 269 Z M 960 180.640625 "/>
</clipPath>
<clipPath id="clip3">
  <path d="M 1069 180.640625 L 1180 180.640625 L 1180 268 L 1069 268 Z M 1069 180.640625 "/>
</clipPath>
<clipPath id="clip4">
  <path d="M 1171 180.640625 L 1352 180.640625 L 1352 268 L 1171 268 Z M 1171 180.640625 "/>
</clipPath>
</defs>
<g id="surface1">
<path style=" stroke:none;fill-rule:nonzero;fill:rgb(93.328857%,76.469421%,73.329163%);fill-opacity:1;" d="M 1311.632812 1095.957031 L 106.273438 1095.957031 C 93.097656 1095.957031 82.363281 1085.21875 82.363281 1072.039062 L 82.363281 392.019531 C 82.363281 378.839844 93.097656 368.101562 106.273438 368.101562 L 1311.632812 368.101562 C 1324.804688 368.101562 1335.542969 378.839844 1335.542969 392.019531 L 1335.542969 1072.039062 C 1335.542969 1085.21875 1324.804688 1095.957031 1311.632812 1095.957031 Z M 1311.632812 1095.957031 "/>
<path style=" stroke:none;fill-rule:evenodd;fill:rgb(40.779114%,67.449951%,64.309692%);fill-opacity:1;" d="M 1285.351562 1067.367188 L 1285.351562 793.199219 L 1349.097656 793.199219 L 1349.097656 368.535156 L 87.753906 368.535156 L 87.753906 1067.367188 Z M 80.351562 183.296875 L 1358.777344 183.296875 C 1373.5 183.296875 1385.535156 195.347656 1385.535156 210.058594 L 1385.535156 1140.234375 C 1385.535156 1154.949219 1373.5 1166.984375 1358.777344 1166.984375 L 80.351562 1166.984375 C 65.628906 1166.984375 53.59375 1154.949219 53.59375 1140.234375 L 53.59375 210.058594 C 53.59375 195.347656 65.628906 183.296875 80.351562 183.296875 "/>
<g clip-path="url(#clip1)" clip-rule="nonzero">
<path style="fill:none;stroke-width:10.001;stroke-linecap:round;stroke-linejoin:round;stroke:rgb(45.098877%,43.919373%,28.62854%);stroke-opacity:1;stroke-miterlimit:22.926001;" d="M 3743.442208 307.314306 L 3743.442208 1139.344698 L 3936.914752 1139.344698 L 3936.914752 2428.092642 L 108.674152 2428.092642 L 108.674152 307.314306 Z M 86.207673 2990.243941 L 3966.293082 2990.243941 C 4010.977071 2990.243941 4047.504365 2953.67287 4047.504365 2909.028898 L 4047.504365 86.180835 C 4047.504365 41.525009 4010.977071 5.001356 3966.293082 5.001356 L 86.207673 5.001356 C 41.523684 5.001356 4.99639 41.525009 4.99639 86.180835 L 4.99639 2909.028898 C 4.99639 2953.67287 41.523684 2990.243941 86.207673 2990.243941 Z M 86.207673 2990.243941 " transform="matrix(0.329484,0,0,-0.329517,51.94752,1168.632406)"/>
</g>
<path style=" stroke:none;fill-rule:evenodd;fill:rgb(93.328857%,76.469421%,73.329163%);fill-opacity:1;" d="M 94.175781 297.726562 L 1342.675781 297.726562 C 1346.214844 297.726562 1349.097656 300.625 1349.097656 304.164062 L 1349.097656 368.535156 L 87.753906 368.535156 L 87.753906 304.164062 C 87.753906 300.625 90.636719 297.726562 94.175781 297.726562 "/>
<path style="fill:none;stroke-width:10.001;stroke-linecap:round;stroke-linejoin:round;stroke:rgb(45.098877%,43.919373%,28.62854%);stroke-opacity:1;stroke-miterlimit:22.926001;" d="M 128.16486 2642.978802 L 3917.424044 2642.978802 C 3928.165274 2642.978802 3936.914752 2634.182778 3936.914752 2623.442619 L 3936.914752 2428.092642 L 108.674152 2428.092642 L 108.674152 2623.442619 C 108.674152 2634.182778 117.423631 2642.978802 128.16486 2642.978802 Z M 128.16486 2642.978802 " transform="matrix(0.329484,0,0,-0.329517,51.94752,1168.632406)"/>
<path style=" stroke:none;fill-rule:evenodd;fill:rgb(98.81897%,96.859741%,96.469116%);fill-opacity:1;" d="M 1285.351562 1067.367188 L 1349.097656 1067.367188 L 1349.097656 368.535156 L 1285.351562 368.535156 L 1285.351562 1067.367188 "/>
<path style="fill:none;stroke-width:10.001;stroke-linecap:round;stroke-linejoin:round;stroke:rgb(45.098877%,43.919373%,28.62854%);stroke-opacity:1;stroke-miterlimit:22.926001;" d="M 3743.442208 307.314306 L 3936.914752 307.314306 L 3936.914752 2428.092642 L 3743.442208 2428.092642 Z M 3743.442208 307.314306 " transform="matrix(0.329484,0,0,-0.329517,51.94752,1168.632406)"/>
<path style=" stroke:none;fill-rule:evenodd;fill:rgb(98.81897%,96.859741%,96.469116%);fill-opacity:1;" d="M 87.753906 1135.679688 L 1285.351562 1135.679688 L 1285.351562 1067.367188 L 87.753906 1067.367188 L 87.753906 1135.679688 "/>
<path style="fill:none;stroke-width:10.001;stroke-linecap:round;stroke-linejoin:round;stroke:rgb(45.098877%,43.919373%,28.62854%);stroke-opacity:1;stroke-miterlimit:22.926001;" d="M 108.674152 100.003159 L 3743.442208 100.003159 L 3743.442208 307.314306 L 108.674152 307.314306 Z M 108.674152 100.003159 " transform="matrix(0.329484,0,0,-0.329517,51.94752,1168.632406)"/>
<path style="fill-rule:evenodd;fill:rgb(88.238525%,49.409485%,24.708557%);fill-opacity:1;stroke-width:10.001;stroke-linecap:round;stroke-linejoin:round;stroke:rgb(45.098877%,43.919373%,28.62854%);stroke-opacity:1;stroke-miterlimit:22.926001;" d="M 233.0519 246.844603 L 238.244679 163.910661 L 177.768949 205.353923 Z M 233.0519 246.844603 " transform="matrix(0.329484,0,0,-0.329517,51.94752,1168.632406)"/>
<path style="fill-rule:evenodd;fill:rgb(88.238525%,49.409485%,24.708557%);fill-opacity:1;stroke-width:10.001;stroke-linecap:round;stroke-linejoin:round;stroke:rgb(45.098877%,43.919373%,28.62854%);stroke-opacity:1;stroke-miterlimit:22.926001;" d="M 3631.169092 248.516085 L 3632.034555 157.853022 L 3691.597399 205.353923 Z M 3631.169092 248.516085 " transform="matrix(0.329484,0,0,-0.329517,51.94752,1168.632406)"/>
<path style="fill-rule:evenodd;fill:rgb(88.238525%,49.409485%,24.708557%);fill-opacity:1;stroke-width:10.001;stroke-linecap:round;stroke-linejoin:round;stroke:rgb(45.098877%,43.919373%,28.62854%);stroke-opacity:1;stroke-miterlimit:22.926001;" d="M 3801.333405 412.66507 L 3888.555508 411.799693 L 3842.342139 360.398668 Z M 3801.333405 412.66507 " transform="matrix(0.329484,0,0,-0.329517,51.94752,1168.632406)"/>
<path style="fill-rule:evenodd;fill:rgb(88.238525%,49.409485%,24.708557%);fill-opacity:1;stroke-width:10.001;stroke-linecap:round;stroke-linejoin:round;stroke:rgb(45.098877%,43.919373%,28.62854%);stroke-opacity:1;stroke-miterlimit:22.926001;" d="M 3839.532347 2371.961679 L 3791.599906 2308.872136 L 3888.792621 2309.298897 Z M 3839.532347 2371.961679 " transform="matrix(0.329484,0,0,-0.329517,51.94752,1168.632406)"/>
<path style=" stroke:none;fill-rule:evenodd;fill:rgb(93.328857%,76.469421%,73.329163%);fill-opacity:1;" d="M 963.613281 183.296875 L 1348.285156 183.296875 C 1348.558594 183.296875 1348.828125 183.3125 1349.097656 183.324219 L 1348.632812 243.269531 C 1348.632812 243.269531 1349.765625 262.910156 1331.839844 263.476562 C 1313.910156 264.054688 976.085938 265.769531 976.085938 265.769531 C 976.085938 265.769531 964.425781 265.769531 962.996094 258.210938 C 961.941406 252.613281 962.996094 206.621094 963.613281 183.296875 "/>
<g clip-path="url(#clip2)" clip-rule="nonzero">
<path style="fill:none;stroke-width:15.001;stroke-linecap:round;stroke-linejoin:round;stroke:rgb(45.098877%,43.919373%,28.62854%);stroke-opacity:1;stroke-miterlimit:22.926001;" d="M 2766.950629 2990.243941 L 3934.448775 2990.243941 C 3935.278671 2990.243941 3936.096712 2990.196523 3936.914752 2990.160959 L 3935.503928 2808.242108 C 3935.503928 2808.242108 3938.94207 2748.637783 3884.536439 2746.918883 C 3830.118951 2745.16442 2804.805757 2739.960303 2804.805757 2739.960303 C 2804.805757 2739.960303 2769.416606 2739.960303 2765.077434 2762.898722 C 2761.876405 2779.886192 2765.077434 2919.46084 2766.950629 2990.243941 Z M 2766.950629 2990.243941 " transform="matrix(0.329484,0,0,-0.329517,51.94752,1168.632406)"/>
</g>
<path style=" stroke:none;fill-rule:evenodd;fill:rgb(93.328857%,76.469421%,73.329163%);fill-opacity:1;" d="M 1073.632812 183.296875 L 1174.070312 183.296875 L 1176.953125 264.660156 C 1141.367188 264.878906 1104.585938 265.085938 1072.34375 265.253906 L 1073.632812 183.296875 "/>
<g clip-path="url(#clip3)" clip-rule="nonzero">
<path style="fill:none;stroke-width:15.001;stroke-linecap:round;stroke-linejoin:round;stroke:rgb(45.098877%,43.919373%,28.62854%);stroke-opacity:1;stroke-miterlimit:22.926001;" d="M 3100.853486 2990.243941 L 3405.698116 2990.243941 L 3414.447595 2743.326976 C 3306.442516 2742.663125 3194.809605 2742.034837 3096.952973 2741.525095 Z M 3100.853486 2990.243941 " transform="matrix(0.329484,0,0,-0.329517,51.94752,1168.632406)"/>
</g>
<path style=" stroke:none;fill-rule:evenodd;fill:rgb(88.238525%,49.409485%,24.708557%);fill-opacity:1;" d="M 1174.070312 183.296875 L 1348.285156 183.296875 C 1348.558594 183.296875 1348.828125 183.3125 1349.097656 183.324219 L 1348.632812 243.269531 C 1348.632812 243.269531 1349.765625 262.910156 1331.839844 263.476562 C 1323.898438 263.734375 1253.238281 264.210938 1176.953125 264.660156 L 1174.070312 183.296875 "/>
<g clip-path="url(#clip4)" clip-rule="nonzero">
<path style="fill:none;stroke-width:15.001;stroke-linecap:round;stroke-linejoin:round;stroke:rgb(45.098877%,43.919373%,28.62854%);stroke-opacity:1;stroke-miterlimit:22.926001;" d="M 3405.698116 2990.243941 L 3934.448775 2990.243941 C 3935.278671 2990.243941 3936.096712 2990.196523 3936.914752 2990.160959 L 3935.503928 2808.242108 C 3935.503928 2808.242108 3938.94207 2748.637783 3884.536439 2746.918883 C 3860.433878 2746.136487 3645.976813 2744.690241 3414.447595 2743.326976 Z M 3405.698116 2990.243941 " transform="matrix(0.329484,0,0,-0.329517,51.94752,1168.632406)"/>
</g>
<path style="fill:none;stroke-width:15.001;stroke-linecap:round;stroke-linejoin:round;stroke:rgb(93.328857%,76.469421%,73.329163%);stroke-opacity:1;stroke-miterlimit:22.926001;" d="M 3625.822188 2916.177149 L 3731.207165 2815.983084 " transform="matrix(0.329484,0,0,-0.329517,51.94752,1168.632406)"/>
<path style="fill:none;stroke-width:15.001;stroke-linecap:round;stroke-linejoin:round;stroke:rgb(93.328857%,76.469421%,73.329163%);stroke-opacity:1;stroke-miterlimit:22.926001;" d="M 3628.442289 2818.602924 L 3723.441707 2912.73935 " transform="matrix(0.329484,0,0,-0.329517,51.94752,1168.632406)"/>
<path style=" stroke:none;fill-rule:evenodd;fill:rgb(98.81897%,96.859741%,96.469116%);fill-opacity:1;" d="M 1114.328125 215.773438 L 1113.542969 232.25 L 1135.460938 233.382812 L 1135.742188 216.882812 Z M 1106.4375 206.917969 L 1144.289062 208.347656 L 1144.855469 241.644531 L 1104.441406 239.933594 L 1106.4375 206.917969 "/>
<path style="fill:none;stroke-width:15.001;stroke-linecap:round;stroke-linejoin:round;stroke:rgb(45.098877%,43.919373%,28.62854%);stroke-opacity:1;stroke-miterlimit:22.926001;" d="M 3224.377626 2891.685794 L 3221.994638 2841.683597 L 3288.516756 2838.245797 L 3289.370363 2888.319121 Z M 3200.429189 2918.5599 L 3315.310551 2914.22116 L 3317.029622 2813.173572 L 3194.370946 2818.365834 Z M 3200.429189 2918.5599 " transform="matrix(0.329484,0,0,-0.329517,51.94752,1168.632406)"/>
<path style="fill:none;stroke-width:15.001;stroke-linecap:round;stroke-linejoin:round;stroke:rgb(45.098877%,43.919373%,28.62854%);stroke-opacity:1;stroke-miterlimit:22.926001;" d="M 2861.523242 2825.039907 L 3006.600975 2828.477706 " transform="matrix(0.329484,0,0,-0.329517,51.94752,1168.632406)"/>
<path style=" stroke:none;fill-rule:evenodd;fill:rgb(88.238525%,49.409485%,24.708557%);fill-opacity:1;" d="M 518.335938 338.429688 C 518.101562 338.273438 517.808594 338.210938 517.445312 338.210938 C 515.722656 338.210938 516.597656 339.574219 513.199219 341.3125 C 512.3125 341.671875 511.398438 341.867188 510.355469 341.902344 C 508.875 341.902344 507.742188 341.375 507.007812 340.460938 C 506.03125 339.214844 505.476562 337.515625 505.414062 334.503906 C 505.414062 333.988281 505.515625 331.296875 505.515625 330.71875 C 505.941406 330.71875 505.796875 330.679688 506.238281 330.679688 C 508.683594 330.679688 511.757812 331 511.757812 328.878906 C 511.757812 327.859375 511.074219 327.152344 510.058594 327.152344 C 508.785156 327.242188 507.574219 327.28125 506.300781 327.28125 C 505.902344 327.28125 506.199219 327.21875 505.773438 327.21875 C 506.03125 324.078125 506.363281 323.097656 506.726562 319.957031 L 506.726562 319.855469 C 506.726562 318.902344 505.414062 318.15625 504.332031 318.285156 C 503.675781 318.347656 502.890625 318.875 502.632812 319.984375 C 502.207031 321.683594 501.886719 324.011719 501.65625 327.179688 C 500.636719 327.152344 499.75 327.152344 498.746094 327.152344 C 497.859375 327.152344 497.109375 327.9375 497.109375 328.878906 C 497.109375 331 499.851562 330.527344 501.511719 330.617188 C 501.511719 331.234375 501.460938 334.015625 501.488281 334.671875 C 501.746094 339.125 502.734375 343.859375 506.945312 345.238281 C 508.023438 345.597656 509.300781 345.6875 510.355469 345.6875 C 513.945312 345.6875 517.679688 343.796875 519.082031 340.359375 C 519.121094 340.140625 519.144531 340 519.144531 339.910156 C 519.144531 339.292969 518.824219 338.726562 518.335938 338.429688 Z M 482.566406 341.671875 C 480.109375 341.671875 475.628906 341.375 475.628906 338.070312 C 475.628906 333.820312 480.828125 331.992188 485.179688 331.992188 C 485.539062 331.992188 485.796875 332.019531 486.160156 332.019531 C 486.582031 332.019531 486.96875 331.953125 487.367188 331.722656 L 487.367188 341.375 C 487.265625 341.351562 487.109375 341.351562 486.917969 341.351562 C 485.375 341.351562 483.96875 341.671875 482.566406 341.671875 Z M 489.324219 326.070312 C 487.921875 326.070312 487.367188 327.152344 487.367188 328.425781 C 486.710938 328.027344 485.925781 328.066406 485.179688 328.066406 C 479.453125 328.066406 471.703125 330.71875 471.703125 338.210938 C 471.703125 342.546875 475.589844 345.597656 482.527344 345.597656 C 484.203125 345.597656 485.835938 345.429688 487.496094 345.171875 C 487.792969 345.921875 488.515625 346.382812 489.324219 346.382812 C 490.40625 346.382812 491.292969 345.496094 491.292969 344.414062 L 491.292969 328.027344 C 491.292969 326.945312 490.40625 326.070312 489.324219 326.070312 Z M 457.457031 325.542969 C 453.890625 325.542969 450.945312 327.347656 449.375 330.746094 C 447.972656 327.859375 444.703125 325.96875 441.589844 325.96875 C 439.734375 325.96875 437.828125 326.585938 436.363281 327.730469 C 436.363281 327.21875 436.386719 326.585938 436.386719 325.96875 C 436.386719 324.335938 436.132812 322.660156 434.304688 322.660156 C 433.222656 322.660156 432.308594 323.585938 432.308594 324.71875 L 432.308594 343.472656 C 432.308594 344.605469 433.222656 345.535156 434.304688 345.535156 C 435.449219 345.535156 436.363281 344.605469 436.363281 343.472656 C 436.363281 342.121094 436.296875 340.824219 436.296875 339.511719 C 436.296875 335.839844 436.917969 330.0625 441.496094 330.0625 C 445.320312 330.0625 447.148438 334.050781 447.148438 339.574219 C 447.148438 340.914062 447.058594 342.328125 446.890625 343.667969 C 446.992188 344.75 447.675781 345.726562 448.949219 345.726562 C 451.175781 345.726562 451.203125 342.585938 451.472656 340.617188 C 451.859375 336.730469 451.921875 329.636719 457.1875 329.636719 C 459.246094 329.636719 461.023438 331.335938 461.023438 338.558594 C 461.023438 340.359375 460.828125 342.121094 460.828125 343.925781 C 460.828125 345.070312 461.808594 345.921875 462.8125 345.921875 C 464.035156 345.921875 464.882812 345.007812 464.882812 343.859375 C 464.972656 342.199219 465.078125 340.488281 465.078125 338.789062 C 465.078125 333.011719 464.164062 326.070312 457.457031 325.542969 Z M 426.105469 328.261719 C 424.597656 325.25 420.839844 325.542969 420.738281 325.542969 C 418.214844 325.542969 415.859375 326.304688 413.671875 327.605469 C 413.414062 325.839844 413.246094 323.910156 411.316406 323.910156 C 410.234375 323.910156 409.359375 324.863281 409.359375 325.90625 C 409.359375 326.433594 410.402344 331.402344 410.402344 331.722656 C 410.492188 332.804688 410.597656 333.628906 410.660156 334.4375 C 410.957031 337.488281 411.125 340.460938 411.125 343.566406 C 411.125 344.644531 411.910156 345.558594 413.054688 345.558594 C 414.136719 345.558594 415.050781 344.644531 415.050781 343.566406 C 415.050781 339.742188 414.816406 335.917969 414.355469 332.082031 C 415.769531 330.421875 417.558594 329.40625 419.65625 329.40625 C 420.542969 329.40625 422.863281 329.574219 422.863281 331.105469 C 423.15625 331.992188 423.878906 332.546875 424.765625 332.546875 C 425.769531 332.546875 426.761719 331.761719 426.761719 330.71875 C 426.761719 329.894531 426.53125 329.070312 426.105469 328.261719 Z M 399.167969 336.792969 C 398.804688 339.316406 397.132812 341.480469 393.96875 341.480469 C 390.429688 341.480469 386.761719 339.871094 386.761719 334.4375 C 386.761719 331.953125 387.878906 328.75 392.292969 328.75 C 394.25 328.75 399.191406 329.726562 399.191406 335.839844 C 399.191406 336.152344 399.191406 336.5 399.167969 336.792969 Z M 402.371094 332.121094 C 401.160156 328.09375 397.878906 324.992188 393.207031 324.992188 C 388.175781 324.992188 384.609375 326.921875 383.464844 331.144531 C 383.167969 332.210938 383.039062 333.394531 383.039062 334.476562 C 383.039062 340.269531 385.910156 344.414062 392.460938 345.46875 C 392.949219 345.535156 393.402344 345.558594 393.863281 345.558594 C 398.113281 345.558594 402.925781 342.753906 402.925781 335.945312 C 402.925781 334.644531 402.757812 333.332031 402.371094 332.121094 Z M 381.277344 319.199219 C 380.917969 318.839844 380.464844 318.644531 379.914062 318.605469 C 377.453125 318.515625 375.074219 318.386719 372.578125 318.386719 C 370.554688 318.386719 363.65625 317.757812 363.65625 320.601562 C 363.65625 325.503906 364.378906 330.152344 364.378906 334.863281 C 364.378906 336.703125 364.300781 338.558594 364.300781 340.425781 C 364.300781 342.652344 363.980469 345.664062 366.371094 345.664062 C 367.414062 345.664062 368.328125 344.878906 368.328125 343.796875 C 368.226562 342.625 368.160156 341.441406 368.160156 340.230469 C 368.160156 338.234375 368.304688 336.242188 368.304688 334.246094 C 369.964844 334.117188 371.664062 334.117188 373.363281 334.117188 C 374.441406 334.117188 375.332031 333.265625 375.332031 332.25 C 375.332031 331.207031 374.441406 330.359375 373.363281 330.359375 C 371.574219 330.359375 369.898438 330.359375 368.070312 330.488281 C 367.800781 327.730469 367.542969 324.953125 367.542969 322.3125 C 369.28125 322.210938 370.980469 322.171875 372.71875 322.171875 C 375.164062 322.171875 377.582031 322.378906 379.976562 322.378906 C 381.019531 322.378906 381.867188 321.464844 381.867188 320.511719 C 381.867188 320.023438 381.675781 319.585938 381.277344 319.199219 "/>
<path style=" stroke:none;fill-rule:evenodd;fill:rgb(88.238525%,49.409485%,24.708557%);fill-opacity:1;" d="M 650.023438 326.984375 C 649.730469 326.820312 649.40625 326.726562 649.046875 326.726562 C 648.558594 326.726562 647.605469 327.011719 647.347656 327.667969 C 646.730469 329.070312 646.136719 330.488281 645.519531 331.953125 C 644.890625 333.394531 644.464844 334.644531 644.167969 335.648438 C 643.886719 336.664062 643.550781 337.707031 643.125 338.761719 C 642.535156 337.65625 641.890625 335.777344 641.027344 334.21875 C 640.179688 332.609375 639.097656 331.273438 637.632812 331.273438 C 636.820312 331.273438 635.867188 332.636719 635.277344 333.949219 C 634.554688 335.519531 633.9375 337.128906 633.410156 338.234375 C 632.136719 335.777344 630.628906 333.164062 629.625 331.503906 C 629.136719 330.65625 628.632812 329.574219 628.144531 328.261719 C 627.886719 327.511719 626.742188 326.726562 625.699219 326.726562 C 624.617188 326.726562 623.730469 327.539062 623.730469 328.722656 C 623.730469 328.941406 623.769531 329.109375 623.796875 329.210938 C 624.324219 330.679688 624.785156 331.761719 625.148438 332.445312 L 626.613281 335.03125 C 627.230469 336.046875 627.976562 337.347656 628.90625 338.917969 C 629.84375 340.460938 630.667969 341.867188 631.351562 343.074219 C 632.429688 345.007812 633.214844 345.40625 633.617188 345.40625 C 635.1875 345.40625 635.738281 343.628906 636.191406 341.777344 C 636.613281 340.140625 637.503906 337.617188 637.964844 337.21875 C 638.542969 337.578125 639.625 339.765625 640.347656 341.480469 C 641.234375 343.566406 642.085938 345.6875 643.421875 345.6875 C 643.976562 345.6875 644.734375 345.40625 645.097656 344.710938 C 645.84375 343.050781 646.332031 341.699219 646.5625 340.695312 C 646.792969 339.675781 647.027344 338.761719 647.246094 338.003906 C 647.476562 337.21875 647.964844 335.984375 648.660156 334.285156 C 649.367188 332.546875 650.128906 330.875 650.953125 329.210938 C 650.976562 328.980469 651.015625 328.8125 651.015625 328.683594 C 651.015625 328.003906 650.65625 327.347656 650.023438 326.984375 Z M 607.0625 329.574219 C 608.082031 329.019531 608.800781 328.722656 610.074219 328.722656 C 611.8125 328.722656 613.113281 329.070312 613.113281 331.53125 C 612.070312 334.015625 607.976562 333.292969 605.917969 333.820312 C 606.019531 332.316406 605.917969 330.617188 607.0625 329.574219 Z M 616.742188 340.191406 C 616.1875 340.191406 614.324219 341.699219 611.734375 341.699219 C 608.464844 341.699219 606.832031 340.398438 606.1875 337.554688 C 607.589844 337.554688 609.019531 337.320312 610.4375 337.089844 C 613.703125 336.574219 616.484375 335.289062 617 331.632812 C 617 328.324219 615.597656 324.886719 609.972656 324.886719 C 606.511719 324.886719 602.878906 326.78125 602.351562 330.679688 C 602.199219 331.824219 602.03125 332.90625 602.03125 334.050781 C 602.03125 338.957031 602.90625 345.496094 611.710938 345.496094 C 613.667969 345.496094 618.710938 344.515625 618.710938 342.097656 C 618.710938 341.082031 617.886719 340.191406 616.742188 340.191406 Z M 589.738281 320.28125 C 589.738281 321.785156 590.5625 322.765625 591.863281 322.765625 C 593.175781 322.765625 594.476562 321.785156 594.476562 320.28125 C 594.476562 318.773438 593.371094 318.027344 592.070312 318.027344 C 590.757812 318.027344 589.738281 318.773438 589.738281 320.28125 Z M 594.128906 329.535156 C 593.960938 327.964844 593.832031 325.800781 591.835938 325.800781 C 590.757812 325.800781 589.867188 326.691406 589.867188 327.730469 C 589.867188 328.554688 590.203125 329.507812 590.332031 330.382812 C 590.691406 332.738281 590.691406 335.917969 590.691406 338.234375 C 590.691406 340.039062 590.652344 341.738281 590.652344 343.539062 C 590.652344 344.605469 591.566406 345.496094 592.621094 345.496094 C 593.703125 345.496094 594.578125 344.605469 594.578125 343.539062 C 594.578125 341.839844 594.617188 340.140625 594.617188 338.429688 C 594.617188 335.6875 594.515625 332.25 594.128906 329.535156 Z M 581.347656 318.453125 C 580.304688 318.21875 579.226562 318.746094 578.929688 319.816406 C 577.785156 323.78125 576.277344 327.539062 574.746094 331.363281 C 573.585938 334.246094 572.582031 337.089844 571.4375 339.972656 C 569.546875 336.152344 568.53125 331.660156 567.382812 327.964844 C 566.496094 325.3125 565.480469 322.699219 564.796875 319.957031 C 564.566406 319.070312 563.753906 318.515625 562.867188 318.515625 C 561.722656 318.515625 560.9375 319.496094 560.9375 320.535156 C 560.9375 320.640625 560.972656 320.769531 561 321 C 562.082031 325.082031 563.652344 329.046875 564.796875 333.101562 C 565.878906 337 567.382812 340.695312 569.121094 344.183594 C 569.597656 345.109375 570.0625 345.726562 571.078125 345.726562 C 571.4375 345.726562 571.667969 345.765625 571.886719 345.765625 C 572.417969 345.765625 573.265625 345.40625 573.5625 344.789062 C 575.363281 341.082031 576.574219 337.285156 578.105469 333.484375 C 579.777344 329.277344 581.308594 325.15625 582.726562 320.871094 C 582.75 320.703125 582.789062 320.574219 582.789062 320.34375 C 582.789062 319.457031 582.222656 318.710938 581.347656 318.453125 "/>
<path style=" stroke:none;fill-rule:evenodd;fill:rgb(88.238525%,49.409485%,24.708557%);fill-opacity:1;" d="M 173.574219 329.574219 C 174.578125 329.019531 175.296875 328.722656 176.570312 328.722656 C 178.308594 328.722656 179.621094 329.070312 179.621094 331.53125 C 178.566406 334.015625 174.488281 333.292969 172.429688 333.820312 C 172.519531 332.316406 172.429688 330.617188 173.574219 329.574219 Z M 183.253906 340.191406 C 182.699219 340.191406 180.832031 341.699219 178.246094 341.699219 C 174.976562 341.699219 173.339844 340.398438 172.683594 337.554688 C 174.089844 337.554688 175.53125 337.320312 176.933594 337.089844 C 180.203125 336.574219 182.996094 335.289062 183.507812 331.632812 C 183.507812 328.324219 182.105469 324.886719 176.480469 324.886719 C 173.007812 324.886719 169.378906 326.78125 168.863281 330.679688 C 168.695312 331.824219 168.527344 332.90625 168.527344 334.050781 C 168.527344 338.957031 169.417969 345.496094 178.207031 345.496094 C 180.175781 345.496094 185.207031 344.515625 185.207031 342.097656 C 185.207031 341.082031 184.398438 340.191406 183.253906 340.191406 Z M 161.050781 330.617188 C 161.023438 327.113281 160.984375 323.714844 160.984375 320.214844 C 160.984375 319.132812 160.109375 318.246094 159.03125 318.246094 C 157.949219 318.246094 157.0625 319.132812 157.0625 320.214844 C 157.0625 328.066406 157.253906 335.726562 157.253906 343.566406 C 157.253906 344.605469 158.140625 345.535156 159.222656 345.535156 C 160.304688 345.535156 161.179688 344.605469 161.179688 343.566406 C 161.179688 339.214844 161.152344 334.964844 161.050781 330.617188 Z M 144.28125 320.28125 C 144.28125 321.785156 145.105469 322.765625 146.402344 322.765625 C 147.714844 322.765625 149.03125 321.785156 149.03125 320.28125 C 149.03125 318.773438 147.910156 318.027344 146.609375 318.027344 C 145.296875 318.027344 144.28125 318.773438 144.28125 320.28125 Z M 148.667969 329.535156 C 148.5 327.964844 148.375 325.800781 146.378906 325.800781 C 145.296875 325.800781 144.421875 326.691406 144.421875 327.730469 C 144.421875 328.554688 144.742188 329.507812 144.871094 330.382812 C 145.234375 332.738281 145.234375 335.917969 145.234375 338.234375 C 145.234375 340.039062 145.195312 341.738281 145.195312 343.539062 C 145.195312 344.605469 146.121094 345.496094 147.164062 345.496094 C 148.246094 345.496094 149.121094 344.605469 149.121094 343.539062 C 149.121094 341.839844 149.15625 340.140625 149.15625 338.429688 C 149.15625 335.6875 149.054688 332.25 148.667969 329.535156 Z M 137.949219 319.199219 C 137.585938 318.839844 137.136719 318.644531 136.570312 318.605469 C 134.125 318.515625 131.730469 318.386719 129.246094 318.386719 C 127.226562 318.386719 120.328125 317.757812 120.328125 320.601562 C 120.328125 325.503906 121.050781 330.152344 121.050781 334.863281 C 121.050781 336.703125 120.972656 338.558594 120.972656 340.425781 C 120.972656 342.652344 120.648438 345.664062 123.042969 345.664062 C 124.085938 345.664062 125 344.878906 125 343.796875 C 124.898438 342.625 124.832031 341.441406 124.832031 340.230469 C 124.832031 338.234375 124.960938 336.242188 124.960938 334.246094 C 126.636719 334.117188 128.332031 334.117188 130.03125 334.117188 C 131.113281 334.117188 132 333.265625 132 332.25 C 132 331.207031 131.113281 330.359375 130.03125 330.359375 C 128.242188 330.359375 126.570312 330.359375 124.742188 330.488281 C 124.472656 327.730469 124.214844 324.953125 124.214844 322.3125 C 125.953125 322.210938 127.652344 322.171875 129.375 322.171875 C 131.835938 322.171875 134.253906 322.378906 136.648438 322.378906 C 137.691406 322.378906 138.539062 321.464844 138.539062 320.511719 C 138.539062 320.023438 138.347656 319.585938 137.949219 319.199219 "/>
<path style=" stroke:none;fill-rule:evenodd;fill:rgb(88.238525%,49.409485%,24.708557%);fill-opacity:1;" d="M 317.695312 338.429688 C 317.476562 338.273438 317.183594 338.210938 316.820312 338.210938 C 315.085938 338.210938 315.972656 339.574219 312.5625 341.3125 C 311.6875 341.671875 310.773438 341.867188 309.71875 341.902344 C 308.25 341.902344 307.105469 341.375 306.382812 340.460938 C 305.40625 339.214844 304.851562 337.515625 304.773438 334.503906 C 304.773438 333.988281 304.878906 331.296875 304.878906 330.71875 C 305.300781 330.71875 305.175781 330.679688 305.597656 330.679688 C 308.058594 330.679688 311.121094 331 311.121094 328.878906 C 311.121094 327.859375 310.4375 327.152344 309.421875 327.152344 C 308.148438 327.242188 306.9375 327.28125 305.664062 327.28125 C 305.277344 327.28125 305.558594 327.21875 305.148438 327.21875 C 305.40625 324.078125 305.726562 323.097656 306.085938 319.957031 L 306.085938 319.855469 C 306.085938 318.902344 304.773438 318.15625 303.707031 318.285156 C 303.050781 318.347656 302.265625 318.875 302.007812 319.984375 C 301.582031 321.683594 301.25 324.011719 301.015625 327.179688 C 300 327.152344 299.125 327.152344 298.109375 327.152344 C 297.234375 327.152344 296.472656 327.9375 296.472656 328.878906 C 296.472656 331 299.214844 330.527344 300.886719 330.617188 C 300.886719 331.234375 300.824219 334.015625 300.847656 334.671875 C 301.121094 339.125 302.097656 343.859375 306.320312 345.238281 C 307.402344 345.597656 308.675781 345.6875 309.71875 345.6875 C 313.320312 345.6875 317.039062 343.796875 318.457031 340.359375 C 318.480469 340.140625 318.519531 340 318.519531 339.910156 C 318.519531 339.292969 318.1875 338.726562 317.695312 338.429688 Z M 284.605469 320.28125 C 284.605469 321.785156 285.429688 322.765625 286.742188 322.765625 C 288.042969 322.765625 289.355469 321.785156 289.355469 320.28125 C 289.355469 318.773438 288.25 318.027344 286.9375 318.027344 C 285.625 318.027344 284.605469 318.773438 284.605469 320.28125 Z M 288.996094 329.535156 C 288.828125 327.964844 288.699219 325.800781 286.703125 325.800781 C 285.625 325.800781 284.75 326.691406 284.75 327.730469 C 284.75 328.554688 285.070312 329.507812 285.199219 330.382812 C 285.558594 332.738281 285.558594 335.917969 285.558594 338.234375 C 285.558594 340.039062 285.535156 341.738281 285.535156 343.539062 C 285.535156 344.605469 286.449219 345.496094 287.488281 345.496094 C 288.570312 345.496094 289.460938 344.605469 289.460938 343.539062 C 289.460938 341.839844 289.484375 340.140625 289.484375 338.429688 C 289.484375 335.6875 289.382812 332.25 288.996094 329.535156 Z M 269.742188 341.542969 C 269.148438 341.609375 268.558594 341.648438 267.976562 341.648438 C 264.964844 341.648438 261.503906 340.71875 261.503906 336.472656 C 261.503906 334.835938 262.1875 332.90625 267.941406 332.121094 C 269.78125 331.851562 271.671875 331.851562 273.5 331.503906 C 273.539062 331.800781 273.539062 332.082031 273.539062 332.351562 C 273.5625 335.070312 273.640625 337.707031 273.640625 340.460938 C 272.585938 341.082031 271.054688 341.375 269.742188 341.542969 Z M 277.335938 320.175781 C 277.335938 319.171875 276.445312 318.285156 275.367188 318.285156 C 274.285156 318.285156 273.371094 319.171875 273.371094 320.175781 C 273.371094 322.699219 273.410156 325.222656 273.472656 327.730469 C 273.074219 327.730469 272.6875 327.769531 272.289062 327.859375 C 266.574219 328.519531 257.539062 328.285156 257.539062 336.730469 C 257.707031 341.3125 260.746094 345.429688 267.785156 345.429688 C 269.910156 345.429688 271.992188 345.171875 273.964844 344.414062 C 274.324219 345.042969 274.875 345.339844 275.660156 345.339844 C 276.742188 345.339844 277.617188 344.480469 277.617188 343.4375 C 277.617188 335.6875 277.335938 328.003906 277.335938 320.175781 Z M 251.105469 342.160156 C 250.71875 341.777344 250.230469 341.609375 249.703125 341.570312 C 245.621094 341.351562 241.53125 341.441406 237.4375 341.351562 C 237.5 340.191406 237.539062 339.058594 237.539062 337.875 C 237.539062 336.960938 237.5 336.046875 237.5 335.09375 L 243.332031 335.09375 C 244.375 335.09375 245.328125 334.246094 245.328125 333.101562 C 245.328125 332.058594 244.375 331.144531 243.332031 331.144531 L 237.347656 331.144531 C 237.308594 331.078125 237.308594 330.976562 237.308594 330.875 C 237.140625 327.964844 236.984375 325.121094 236.882812 322.234375 C 241.167969 322.273438 245.328125 322.441406 249.546875 322.441406 C 250.679688 322.441406 251.53125 321.515625 251.53125 320.445312 C 251.53125 319.367188 250.679688 318.476562 249.546875 318.476562 C 244.824219 318.476562 240.253906 318.285156 235.570312 318.285156 C 234.230469 318.285156 232.917969 318.964844 232.917969 320.382812 C 232.917969 326.265625 233.550781 331.953125 233.550781 337.746094 C 233.550781 339.613281 233.355469 341.375 233.355469 343.203125 C 233.355469 344.902344 235.417969 345.300781 236.625 345.300781 C 240.769531 345.40625 244.796875 345.265625 248.980469 345.496094 C 250.421875 345.496094 251.695312 345.238281 251.695312 343.566406 C 251.695312 343.011719 251.503906 342.546875 251.105469 342.160156 "/>
<path style=" stroke:none;fill-rule:evenodd;fill:rgb(88.238525%,49.409485%,24.708557%);fill-opacity:1;" d="M 778.988281 338.46875 C 778.589844 340.953125 775.523438 341.902344 769.65625 341.503906 C 769.398438 337.976562 769.375 335.132812 769.207031 331.566406 C 770.121094 331.335938 771.070312 331.296875 772.023438 331.296875 C 776.335938 331.296875 779.011719 333.589844 779.011719 337.554688 C 779.011719 337.847656 779.011719 338.105469 778.988281 338.46875 Z M 781.636719 332.121094 C 779.605469 328.878906 775.9375 327.371094 771.894531 327.371094 C 770.867188 327.371094 769.863281 327.511719 768.808594 327.667969 C 768.613281 326.691406 768.332031 325.414062 766.785156 325.414062 C 765.742188 325.414062 764.855469 326.367188 764.855469 327.410156 C 764.855469 327.640625 764.855469 327.964844 764.957031 328.195312 C 765.578125 333.332031 765.449219 338.492188 765.808594 343.667969 C 765.832031 344.285156 765.832031 344.902344 765.832031 345.535156 C 765.832031 347.105469 765.769531 348.675781 765.769531 350.246094 C 765.769531 352.859375 765.578125 357.609375 768.292969 357.609375 C 769.734375 357.609375 770.03125 356.589844 770.03125 355.507812 C 770.03125 353.667969 769.695312 352.136719 769.695312 350.335938 C 769.695312 348.507812 769.796875 347.195312 769.824219 345.46875 C 774.933594 345.46875 782.9375 346.152344 782.9375 337.449219 C 782.9375 335.621094 782.578125 333.78125 781.636719 332.121094 Z M 757.25 330.617188 C 757.210938 327.113281 757.183594 323.714844 757.183594 320.214844 C 757.183594 319.132812 756.296875 318.246094 755.214844 318.246094 C 754.132812 318.246094 753.257812 319.132812 753.257812 320.214844 C 753.257812 328.066406 753.453125 335.726562 753.453125 343.566406 C 753.453125 344.605469 754.339844 345.535156 755.421875 345.535156 C 756.488281 345.535156 757.378906 344.605469 757.378906 343.566406 C 757.378906 339.214844 757.351562 334.964844 757.25 330.617188 Z M 735.242188 329.574219 C 736.257812 329.019531 736.976562 328.722656 738.253906 328.722656 C 739.988281 328.722656 741.300781 329.070312 741.300781 331.53125 C 740.246094 334.015625 736.15625 333.292969 734.09375 333.820312 C 734.199219 332.316406 734.09375 330.617188 735.242188 329.574219 Z M 744.917969 340.191406 C 744.367188 340.191406 742.511719 341.699219 739.925781 341.699219 C 736.65625 341.699219 735.023438 340.398438 734.367188 337.554688 C 735.769531 337.554688 737.210938 337.320312 738.613281 337.089844 C 741.882812 336.574219 744.660156 335.289062 745.1875 331.632812 C 745.1875 328.324219 743.785156 324.886719 738.164062 324.886719 C 734.6875 324.886719 731.058594 326.78125 730.53125 330.679688 C 730.375 331.824219 730.207031 332.90625 730.207031 334.050781 C 730.207031 338.957031 731.097656 345.496094 739.886719 345.496094 C 741.855469 345.496094 746.886719 344.515625 746.886719 342.097656 C 746.886719 341.082031 746.078125 340.191406 744.917969 340.191406 Z M 723.578125 331.761719 C 723.347656 327.859375 723.195312 324.078125 722.960938 320.175781 C 722.859375 319.132812 722.074219 318.285156 720.992188 318.285156 C 719.925781 318.285156 719.035156 319.171875 719.035156 320.175781 L 719.527344 328.980469 C 715.472656 328.980469 711.480469 329.238281 707.425781 329.238281 C 707.296875 326.097656 707.296875 322.828125 706.769531 319.726562 C 706.515625 318.902344 705.753906 318.324219 704.867188 318.324219 C 703.925781 318.324219 702.910156 319.132812 702.910156 320.085938 L 702.910156 320.214844 C 703.464844 325.582031 703.695312 330.9375 703.695312 336.203125 C 703.695312 338.660156 703.527344 341.015625 703.527344 343.410156 C 703.527344 344.414062 704.441406 345.238281 705.496094 345.238281 C 706.515625 345.238281 707.453125 344.480469 707.453125 343.347656 C 707.582031 340.992188 707.621094 338.699219 707.621094 336.34375 C 707.621094 335.199219 707.582031 334.179688 707.554688 333.035156 C 711.480469 332.90625 715.304688 332.777344 719.230469 332.777344 C 719.398438 332.777344 719.527344 332.738281 719.691406 332.714844 C 719.820312 336.277344 719.925781 339.871094 720.015625 343.4375 C 720.054688 344.453125 720.902344 345.339844 721.984375 345.339844 C 723.050781 345.339844 723.941406 344.453125 723.941406 343.4375 C 723.941406 339.511719 723.683594 335.6875 723.578125 331.761719 "/>
<path style=" stroke:none;fill-rule:evenodd;fill:rgb(98.81897%,96.859741%,96.469116%);fill-opacity:1;" d="M 782.203125 252.585938 C 781.535156 252.664062 780.878906 252.703125 780.210938 252.703125 C 776.8125 252.703125 772.898438 251.671875 772.898438 246.871094 C 772.898438 245.03125 773.671875 242.84375 780.171875 241.96875 C 782.242188 241.671875 784.378906 241.671875 786.453125 241.261719 C 786.492188 241.59375 786.492188 241.929688 786.492188 242.226562 C 786.515625 245.289062 786.59375 248.273438 786.59375 251.378906 C 785.410156 252.074219 783.683594 252.40625 782.203125 252.585938 Z M 790.765625 228.492188 C 790.765625 227.34375 789.773438 226.339844 788.550781 226.339844 C 787.339844 226.339844 786.296875 227.34375 786.296875 228.492188 C 786.296875 231.324219 786.335938 234.167969 786.414062 237.011719 C 785.964844 237.011719 785.527344 237.050781 785.089844 237.167969 C 778.625 237.902344 768.433594 237.644531 768.433594 247.167969 C 768.625 252.328125 772.050781 256.988281 779.992188 256.988281 C 782.386719 256.988281 784.753906 256.691406 786.96875 255.84375 C 787.367188 256.550781 787.996094 256.875 788.882812 256.875 C 790.105469 256.875 791.097656 255.921875 791.097656 254.738281 C 791.097656 245.984375 790.765625 237.308594 790.765625 228.492188 Z M 751.210938 252.742188 C 748.445312 252.742188 743.375 252.40625 743.375 248.6875 C 743.375 243.886719 749.257812 241.8125 754.160156 241.8125 C 754.558594 241.8125 754.867188 241.851562 755.265625 241.851562 C 755.742188 241.851562 756.195312 241.773438 756.632812 241.515625 L 756.632812 252.40625 C 756.527344 252.382812 756.335938 252.382812 756.117188 252.382812 C 754.378906 252.382812 752.796875 252.742188 751.210938 252.742188 Z M 758.84375 235.132812 C 757.261719 235.132812 756.632812 236.355469 756.632812 237.785156 C 755.898438 237.347656 755.007812 237.386719 754.160156 237.386719 C 747.699219 237.386719 738.945312 240.371094 738.945312 248.828125 C 738.945312 253.734375 743.347656 257.167969 751.175781 257.167969 C 753.054688 257.167969 754.894531 256.988281 756.785156 256.691406 C 757.109375 257.542969 757.929688 258.058594 758.84375 258.058594 C 760.066406 258.058594 761.058594 257.066406 761.058594 255.84375 L 761.058594 237.347656 C 761.058594 236.125 760.066406 235.132812 758.84375 235.132812 Z M 727.480469 249.125 C 727.042969 251.929688 723.566406 253 716.964844 252.5625 C 716.667969 248.570312 716.628906 245.351562 716.4375 241.335938 C 717.480469 241.078125 718.546875 241.042969 719.617188 241.042969 C 724.492188 241.042969 727.519531 243.628906 727.519531 248.09375 C 727.519531 248.429688 727.519531 248.710938 727.480469 249.125 Z M 730.464844 241.96875 C 728.175781 238.3125 724.042969 236.613281 719.472656 236.613281 C 718.328125 236.613281 717.183594 236.753906 716 236.933594 C 715.78125 235.828125 715.445312 234.398438 713.707031 234.398438 C 712.523438 234.398438 711.53125 235.46875 711.53125 236.652344 C 711.53125 236.910156 711.53125 237.269531 711.648438 237.527344 C 712.34375 243.332031 712.203125 249.164062 712.601562 254.996094 C 712.640625 255.703125 712.640625 256.398438 712.640625 257.105469 C 712.640625 258.867188 712.5625 260.644531 712.5625 262.421875 C 712.5625 265.367188 712.34375 270.722656 715.40625 270.722656 C 717.027344 270.722656 717.363281 269.578125 717.363281 268.355469 C 717.363281 266.296875 716.992188 264.558594 716.992188 262.523438 C 716.992188 260.453125 717.105469 258.984375 717.144531 257.027344 C 722.898438 257.027344 731.945312 257.800781 731.945312 247.980469 C 731.945312 245.90625 731.546875 243.847656 730.464844 241.96875 Z M 691.609375 239.085938 C 692.753906 238.453125 693.566406 238.121094 695.007812 238.121094 C 696.964844 238.121094 698.445312 238.53125 698.445312 241.296875 C 697.261719 244.105469 692.640625 243.292969 690.308594 243.886719 C 690.425781 242.1875 690.308594 240.257812 691.609375 239.085938 Z M 702.535156 251.082031 C 701.90625 251.082031 699.808594 252.78125 696.886719 252.78125 C 693.191406 252.78125 691.351562 251.300781 690.617188 248.09375 C 692.203125 248.09375 693.824219 247.824219 695.417969 247.578125 C 699.101562 246.976562 702.242188 245.546875 702.832031 241.414062 C 702.832031 237.683594 701.25 233.808594 694.890625 233.808594 C 690.980469 233.808594 686.886719 235.945312 686.292969 240.332031 C 686.113281 241.632812 685.921875 242.84375 685.921875 244.144531 C 685.921875 249.679688 686.925781 257.066406 696.847656 257.066406 C 699.0625 257.066406 704.75 255.960938 704.75 253.21875 C 704.75 252.074219 703.824219 251.082031 702.535156 251.082031 Z M 678.660156 249.085938 C 678.40625 248.90625 678.070312 248.828125 677.671875 248.828125 C 675.714844 248.828125 676.707031 250.386719 672.871094 252.328125 C 671.867188 252.742188 670.835938 252.960938 669.652344 253 C 667.992188 253 666.707031 252.40625 665.894531 251.378906 C 664.773438 249.972656 664.15625 248.054688 664.078125 244.65625 C 664.078125 244.066406 664.195312 241.042969 664.195312 240.371094 C 664.671875 240.371094 664.53125 240.332031 665.007812 240.332031 C 667.773438 240.332031 671.25 240.707031 671.25 238.3125 C 671.25 237.167969 670.464844 236.355469 669.332031 236.355469 C 667.890625 236.457031 666.511719 236.496094 665.082031 236.496094 C 664.632812 236.496094 664.96875 236.421875 664.492188 236.421875 C 664.773438 232.878906 665.148438 231.773438 665.558594 228.234375 L 665.558594 228.117188 C 665.558594 227.050781 664.078125 226.199219 662.855469 226.339844 C 662.125 226.417969 661.234375 227.011719 660.9375 228.257812 C 660.464844 230.191406 660.089844 232.804688 659.832031 236.382812 C 658.6875 236.355469 657.695312 236.355469 656.550781 236.355469 C 655.546875 236.355469 654.710938 237.230469 654.710938 238.3125 C 654.710938 240.707031 657.8125 240.152344 659.691406 240.257812 C 659.691406 240.964844 659.613281 244.105469 659.652344 244.839844 C 659.949219 249.859375 661.054688 255.214844 665.816406 256.769531 C 667.039062 257.167969 668.46875 257.285156 669.652344 257.285156 C 673.71875 257.285156 677.929688 255.148438 679.511719 251.261719 C 679.550781 251.003906 679.589844 250.863281 679.589844 250.746094 C 679.589844 250.050781 679.214844 249.421875 678.660156 249.085938 Z M 641.3125 228.59375 C 641.3125 230.292969 642.238281 231.398438 643.71875 231.398438 C 645.1875 231.398438 646.667969 230.292969 646.667969 228.59375 C 646.667969 226.894531 645.417969 226.046875 643.9375 226.046875 C 642.457031 226.046875 641.3125 226.894531 641.3125 228.59375 Z M 646.265625 239.046875 C 646.074219 237.269531 645.933594 234.835938 643.679688 234.835938 C 642.457031 234.835938 641.464844 235.828125 641.464844 237.011719 C 641.464844 237.9375 641.828125 239.007812 641.980469 240 C 642.378906 242.664062 642.378906 246.242188 642.378906 248.867188 C 642.378906 250.902344 642.355469 252.820312 642.355469 254.851562 C 642.355469 256.0625 643.382812 257.066406 644.566406 257.066406 C 645.777344 257.066406 646.78125 256.0625 646.78125 254.851562 C 646.78125 252.933594 646.820312 251.003906 646.820312 249.085938 C 646.820312 245.984375 646.703125 242.109375 646.265625 239.046875 Z M 633.5 237.605469 C 631.800781 234.207031 627.554688 234.539062 627.449219 234.539062 C 624.605469 234.539062 621.941406 235.390625 619.472656 236.871094 C 619.175781 234.875 618.996094 232.6875 616.820312 232.6875 C 615.597656 232.6875 614.605469 233.769531 614.605469 234.953125 C 614.605469 235.53125 615.777344 241.144531 615.777344 241.515625 C 615.894531 242.742188 616.007812 243.652344 616.074219 244.582031 C 616.40625 248.019531 616.585938 251.378906 616.585938 254.878906 C 616.585938 256.101562 617.476562 257.132812 618.777344 257.132812 C 619.984375 257.132812 621.027344 256.101562 621.027344 254.878906 C 621.027344 250.566406 620.769531 246.242188 620.242188 241.929688 C 621.839844 240.039062 623.859375 238.890625 626.226562 238.890625 C 627.21875 238.890625 629.84375 239.085938 629.84375 240.808594 C 630.179688 241.8125 630.988281 242.445312 631.992188 242.445312 C 633.125 242.445312 634.234375 241.554688 634.234375 240.371094 C 634.234375 239.445312 633.976562 238.53125 633.5 237.605469 Z M 599.40625 240.550781 C 598.773438 242.445312 597.707031 245.351562 596.703125 248.199219 C 595.261719 244.503906 593.753906 240.808594 592.09375 237.167969 C 591.761719 236.238281 590.871094 235.648438 589.921875 235.609375 C 588.917969 235.570312 587.886719 236.164062 587.589844 237.167969 C 586.035156 240.667969 584.667969 244.207031 583.382812 247.761719 C 582.457031 245.058594 581.980469 242.484375 581.425781 240.707031 C 580.0625 236.457031 578.105469 232.132812 576.445312 227.964844 C 576.109375 226.816406 574.886719 226.199219 573.703125 226.496094 C 572.597656 226.816406 571.824219 228.078125 572.199219 229.226562 C 573.820312 233.316406 575.890625 237.644531 577.140625 241.890625 C 578.066406 244.914062 578.953125 248.570312 580.101562 251.929688 C 580.652344 253.550781 580.949219 256.398438 582.636719 256.910156 C 582.90625 256.988281 583.164062 257.027344 583.421875 256.988281 C 583.601562 256.988281 583.742188 256.949219 583.933594 256.910156 C 584.746094 256.691406 585.375 255.921875 585.480469 255.070312 C 586.585938 251.75 585.519531 254.957031 586.921875 250.941406 C 587.808594 248.238281 588.800781 245.507812 589.882812 242.84375 C 591.027344 245.507812 592.09375 248.199219 593.085938 250.941406 C 594.605469 255.109375 593.304688 251.414062 594.746094 255.46875 C 595.082031 256.472656 596.046875 257.066406 597.074219 256.988281 C 597.964844 256.949219 598.773438 256.398438 599.03125 255.46875 C 600.214844 251.414062 602.429688 245.90625 603.679688 241.734375 C 604.941406 237.488281 606.457031 233.316406 608.082031 229.226562 C 608.441406 228.078125 607.667969 226.816406 606.5625 226.496094 C 605.378906 226.199219 604.167969 226.816406 603.832031 227.964844 C 602.171875 232.132812 600.769531 236.316406 599.40625 240.550781 Z M 547.976562 241.734375 C 545.800781 241.734375 543.6875 241.59375 541.476562 241.59375 C 539.675781 241.59375 537.5625 241.699219 537.5625 243.886719 C 537.5625 246.394531 540.484375 246.023438 541.964844 246.023438 C 544.179688 246.023438 546.238281 246.164062 548.453125 246.164062 C 550.226562 246.164062 552.402344 246.136719 552.402344 243.886719 C 552.402344 241.375 549.597656 241.734375 547.976562 241.734375 Z M 518.140625 249.085938 C 517.882812 248.90625 517.5625 248.828125 517.152344 248.828125 C 515.195312 248.828125 516.199219 250.386719 512.351562 252.328125 C 511.359375 252.742188 510.316406 252.960938 509.144531 253 C 507.484375 253 506.183594 252.40625 505.375 251.378906 C 504.265625 249.972656 503.636719 248.054688 503.570312 244.65625 C 503.570312 244.066406 503.675781 241.042969 503.675781 240.371094 C 504.152344 240.371094 504.011719 240.332031 504.484375 240.332031 C 507.253906 240.332031 510.726562 240.707031 510.726562 238.3125 C 510.726562 237.167969 509.957031 236.355469 508.808594 236.355469 C 507.367188 236.457031 506.003906 236.496094 504.5625 236.496094 C 504.113281 236.496094 504.460938 236.421875 503.972656 236.421875 C 504.265625 232.878906 504.640625 231.773438 505.039062 228.234375 L 505.039062 228.117188 C 505.039062 227.050781 503.570312 226.199219 502.347656 226.339844 C 501.617188 226.417969 500.726562 227.011719 500.433594 228.257812 C 499.941406 230.191406 499.582031 232.804688 499.324219 236.382812 C 498.179688 236.355469 497.175781 236.355469 496.03125 236.355469 C 495.039062 236.355469 494.191406 237.230469 494.191406 238.3125 C 494.191406 240.707031 497.292969 240.152344 499.171875 240.257812 C 499.171875 240.964844 499.105469 244.105469 499.132812 244.839844 C 499.429688 249.859375 500.535156 255.214844 505.296875 256.769531 C 506.519531 257.167969 507.960938 257.285156 509.144531 257.285156 C 513.199219 257.285156 517.40625 255.148438 519.003906 251.261719 C 519.03125 251.003906 519.066406 250.863281 519.066406 250.746094 C 519.066406 250.050781 518.695312 249.421875 518.140625 249.085938 Z M 485.605469 242.519531 C 484.304688 238.851562 482.015625 235.53125 476.402344 235.054688 C 474.304688 234.914062 472.269531 235.648438 470.238281 236.382812 C 470.058594 234.464844 470.058594 231.554688 467.726562 231.554688 C 466.582031 231.554688 465.628906 232.625 465.628906 233.808594 C 465.628906 240.746094 465.886719 247.605469 465.886719 254.59375 C 465.886719 255.882812 466.851562 256.875 468.023438 256.875 C 469.167969 256.875 470.132812 255.882812 470.132812 254.59375 C 470.132812 248.09375 467.507812 238.59375 476.339844 239.484375 C 480.210938 239.972656 482.464844 243.332031 482.464844 254.59375 C 482.464844 255.882812 483.417969 256.875 484.601562 256.875 C 485.785156 256.875 486.75 255.882812 486.75 254.59375 C 486.75 250.644531 486.777344 246.976562 485.605469 242.519531 Z M 446.042969 239.085938 C 447.171875 238.453125 447.996094 238.121094 449.4375 238.121094 C 451.394531 238.121094 452.863281 238.53125 452.863281 241.296875 C 451.679688 244.105469 447.070312 243.292969 444.742188 243.886719 C 444.855469 242.1875 444.742188 240.257812 446.042969 239.085938 Z M 456.96875 251.082031 C 456.335938 251.082031 454.226562 252.78125 451.316406 252.78125 C 447.625 252.78125 445.769531 251.300781 445.039062 248.09375 C 446.621094 248.09375 448.253906 247.824219 449.839844 247.578125 C 453.53125 246.976562 456.671875 245.546875 457.265625 241.414062 C 457.265625 237.683594 455.667969 233.808594 449.324219 233.808594 C 445.410156 233.808594 441.316406 235.945312 440.726562 240.332031 C 440.53125 241.632812 440.351562 242.84375 440.351562 244.144531 C 440.351562 249.679688 441.34375 257.066406 451.28125 257.066406 C 453.492188 257.066406 459.183594 255.960938 459.183594 253.21875 C 459.183594 252.074219 458.253906 251.082031 456.96875 251.082031 Z M 424.199219 234.539062 C 420.171875 234.539062 416.851562 236.574219 415.074219 240.410156 C 413.492188 237.167969 409.796875 235.015625 406.296875 235.015625 C 404.1875 235.015625 402.050781 235.726562 400.390625 237.011719 C 400.390625 236.421875 400.414062 235.726562 400.414062 235.015625 C 400.414062 233.175781 400.121094 231.296875 398.058594 231.296875 C 396.835938 231.296875 395.808594 232.328125 395.808594 233.613281 L 395.808594 254.773438 C 395.808594 256.0625 396.835938 257.105469 398.058594 257.105469 C 399.347656 257.105469 400.390625 256.0625 400.390625 254.773438 C 400.390625 253.257812 400.3125 251.777344 400.3125 250.308594 C 400.3125 246.164062 401.007812 239.636719 406.179688 239.636719 C 410.492188 239.636719 412.566406 244.144531 412.566406 250.386719 C 412.566406 251.890625 412.449219 253.488281 412.269531 254.996094 C 412.386719 256.21875 413.15625 257.324219 414.597656 257.324219 C 417.109375 257.324219 417.148438 253.769531 417.441406 251.558594 C 417.878906 247.167969 417.957031 239.148438 423.902344 239.148438 C 426.21875 239.148438 428.214844 241.078125 428.214844 249.242188 C 428.214844 251.261719 427.996094 253.257812 427.996094 255.289062 C 427.996094 256.578125 429.105469 257.542969 430.25 257.542969 C 431.613281 257.542969 432.578125 256.511719 432.578125 255.214844 C 432.683594 253.332031 432.796875 251.414062 432.796875 249.496094 C 432.796875 242.960938 431.769531 235.132812 424.199219 234.539062 Z M 387.210938 242.289062 C 387.210938 240.074219 387.105469 237.9375 387.105469 235.726562 C 387.105469 234.578125 386.21875 233.511719 384.933594 233.511719 C 384.082031 233.511719 382.9375 234.140625 382.78125 235.132812 C 382.449219 237.230469 382.230469 239.226562 382.230469 241.335938 C 382.230469 242.664062 382.371094 244.246094 382.371094 245.84375 C 382.371094 249.242188 381.597656 252.484375 376.578125 252.484375 C 372.488281 252.484375 369.089844 250.746094 369.089844 244.363281 C 369.089844 241.59375 369.601562 238.96875 369.898438 236.316406 C 369.9375 236.125 369.976562 235.984375 369.976562 235.726562 C 369.976562 234.578125 369.011719 233.511719 367.800781 233.511719 C 366.953125 233.511719 365.808594 234.140625 365.652344 235.132812 C 365.214844 238.234375 364.660156 241.222656 364.660156 244.324219 C 364.660156 250.386719 367.132812 256.875 376.695312 256.875 C 379.023438 256.875 381.636719 256.359375 383.257812 254.738281 C 383.257812 256.023438 384.109375 257.132812 385.484375 257.132812 C 386.695312 257.132812 387.699219 256.140625 387.699219 254.917969 C 387.25 251.816406 387.210938 248.828125 387.210938 245.726562 Z M 350.3125 252.859375 C 347.066406 252.859375 341.519531 251.558594 341.519531 245.609375 C 341.519531 242.1875 342.371094 238.492188 349.757812 238.492188 C 351.042969 238.492188 352.265625 238.75 353.554688 238.75 C 354.777344 238.75 355.703125 237.644531 355.703125 236.613281 C 355.703125 234.140625 352.046875 234.285156 349.679688 234.285156 C 343.8125 234.285156 337.09375 236.277344 337.09375 245.585938 C 337.09375 251.929688 342.445312 257.066406 350.273438 257.066406 C 352.78125 257.066406 357.027344 256.808594 357.027344 254.285156 C 357.027344 253.113281 355.960938 252.226562 354.816406 252.226562 C 353.230469 252.226562 351.894531 252.859375 350.3125 252.859375 Z M 325.984375 247.246094 C 325.585938 250.089844 323.707031 252.523438 320.128906 252.523438 C 316.140625 252.523438 311.996094 250.707031 311.996094 244.582031 C 311.996094 241.773438 313.257812 238.15625 318.238281 238.15625 C 320.453125 238.15625 326.023438 239.265625 326.023438 246.164062 C 326.023438 246.5 326.023438 246.910156 325.984375 247.246094 Z M 329.613281 241.96875 C 328.25 237.425781 324.558594 233.910156 319.28125 233.910156 C 313.589844 233.910156 309.5625 236.085938 308.277344 240.859375 C 307.941406 242.070312 307.800781 243.398438 307.800781 244.621094 C 307.800781 251.160156 311.042969 255.84375 318.429688 257.027344 C 318.984375 257.105469 319.5 257.132812 320.011719 257.132812 C 324.8125 257.132812 330.234375 253.964844 330.234375 246.28125 C 330.234375 244.800781 330.050781 243.332031 329.613281 241.96875 Z M 296.847656 243.074219 C 295.957031 248.929688 289.832031 252.382812 283.769531 253.078125 C 283.589844 251.195312 283.628906 249.265625 283.628906 247.386719 C 283.628906 243.652344 283.398438 240 283.398438 236.316406 C 283.398438 235.648438 283.371094 231.105469 283.550781 231.105469 C 288.75 231.875 295.46875 233.871094 296.847656 240.746094 C 296.910156 241.515625 296.910156 242.289062 296.847656 243.074219 Z M 301.042969 239.34375 C 298.429688 228.195312 285.25 226.457031 279.304688 226.457031 C 277.863281 226.457031 276.613281 227.074219 276.613281 228.671875 C 276.613281 229.996094 277.722656 230.886719 279.007812 230.886719 C 279.007812 232.402344 278.96875 233.871094 278.96875 235.390625 C 278.96875 239.894531 279.203125 244.363281 279.203125 248.867188 C 279.203125 250.230469 279.226562 251.597656 279.34375 252.960938 C 279.304688 252.933594 279.203125 252.933594 279.085938 252.933594 C 277.941406 252.933594 277.011719 254.105469 277.011719 255.148438 C 277.011719 257.324219 279.34375 257.542969 282.109375 257.542969 C 290.605469 257.542969 300.902344 252.484375 301.339844 242.148438 C 301.339844 241.261719 301.234375 240.332031 301.042969 239.34375 Z M 259.484375 236.164062 C 259.148438 235.984375 258.777344 235.867188 258.375 235.867188 C 257.824219 235.867188 256.753906 236.203125 256.460938 236.933594 C 255.75 238.53125 255.082031 240.113281 254.386719 241.773438 C 253.679688 243.398438 253.203125 244.800781 252.867188 245.945312 C 252.546875 247.089844 252.171875 248.273438 251.695312 249.460938 C 251.027344 248.199219 250.292969 246.101562 249.328125 244.324219 C 248.363281 242.519531 247.152344 241.003906 245.492188 241.003906 C 244.566406 241.003906 243.5 242.546875 242.828125 244.027344 C 242.019531 245.804688 241.3125 247.605469 240.730469 248.867188 C 239.289062 246.101562 237.589844 243.140625 236.445312 241.261719 C 235.890625 240.308594 235.339844 239.085938 234.785156 237.605469 C 234.488281 236.753906 233.203125 235.867188 232.019531 235.867188 C 230.796875 235.867188 229.804688 236.792969 229.804688 238.121094 C 229.804688 238.375 229.832031 238.570312 229.867188 238.671875 C 230.460938 240.332031 230.988281 241.554688 231.386719 242.328125 L 233.046875 245.25 C 233.742188 246.394531 234.59375 247.863281 235.636719 249.640625 C 236.703125 251.378906 237.628906 252.960938 238.402344 254.324219 C 239.625 256.511719 240.5 256.949219 240.949219 256.949219 C 242.726562 256.949219 243.34375 254.957031 243.859375 252.859375 C 244.347656 251.003906 245.339844 248.160156 245.855469 247.722656 C 246.523438 248.132812 247.746094 250.605469 248.558594 252.523438 C 249.546875 254.878906 250.511719 257.285156 252.019531 257.285156 C 252.648438 257.285156 253.5 256.949219 253.910156 256.179688 C 254.761719 254.285156 255.3125 252.78125 255.570312 251.632812 C 255.828125 250.488281 256.085938 249.460938 256.34375 248.609375 C 256.601562 247.722656 257.152344 246.320312 257.925781 244.402344 C 258.738281 242.445312 259.585938 240.550781 260.511719 238.671875 C 260.550781 238.414062 260.589844 238.234375 260.589844 238.082031 C 260.589844 237.308594 260.179688 236.574219 259.484375 236.164062 Z M 210.988281 239.085938 C 212.132812 238.453125 212.945312 238.121094 214.386719 238.121094 C 216.34375 238.121094 217.808594 238.53125 217.808594 241.296875 C 216.625 244.105469 212.015625 243.292969 209.6875 243.886719 C 209.804688 242.1875 209.6875 240.257812 210.988281 239.085938 Z M 221.914062 251.082031 C 221.285156 251.082031 219.171875 252.78125 216.265625 252.78125 C 212.570312 252.78125 210.730469 251.300781 209.984375 248.09375 C 211.578125 248.09375 213.203125 247.824219 214.785156 247.578125 C 218.476562 246.976562 221.617188 245.546875 222.210938 241.414062 C 222.210938 237.683594 220.613281 233.808594 214.269531 233.808594 C 210.355469 233.808594 206.265625 235.945312 205.671875 240.332031 C 205.480469 241.632812 205.300781 242.84375 205.300781 244.144531 C 205.300781 249.679688 206.304688 257.066406 216.226562 257.066406 C 218.441406 257.066406 224.128906 255.960938 224.128906 253.21875 C 224.128906 252.074219 223.203125 251.082031 221.914062 251.082031 Z M 192.507812 256.101562 C 192.90625 256.808594 193.675781 257.207031 194.460938 257.207031 C 196.046875 257.207031 197.449219 256.550781 197.449219 254.917969 C 197.449219 245.90625 197.449219 237.089844 197.925781 228.078125 C 197.925781 226.855469 196.855469 225.867188 195.632812 225.867188 C 194.308594 225.867188 193.382812 226.855469 193.382812 228.078125 C 192.945312 234.796875 192.867188 241.335938 192.867188 248.019531 C 190.730469 244.734375 188.515625 241.105469 187.332031 239.34375 C 184.347656 234.796875 181.976562 231.554688 179.609375 227.746094 C 179.132812 226.816406 178.4375 226.339844 177.589844 226.339844 L 176.882812 226.339844 C 174.527344 226.339844 174.449219 228.59375 174.332031 230.511719 C 173.933594 238.59375 174.707031 246.769531 174.308594 254.851562 C 174.230469 256.0625 175.183594 257.066406 176.480469 257.066406 C 177.769531 257.066406 178.761719 256.0625 178.835938 254.851562 C 179.09375 249.832031 178.992188 244.992188 178.835938 239.972656 L 178.992188 234.398438 C 180.355469 236.714844 181.757812 239.046875 183.34375 241.261719 C 186.636719 245.84375 190.355469 251.851562 192.25 255.703125 C 192.3125 255.84375 192.390625 256 192.507812 256.101562 "/>
<path style=" stroke:none;fill-rule:evenodd;fill:rgb(93.328857%,76.469421%,73.329163%);fill-opacity:1;" d="M 93.96875 219.660156 L 134.9375 219.082031 L 133.917969 266.476562 L 93.390625 266.476562 L 93.96875 219.660156 "/>
<path style="fill:none;stroke-width:10.001;stroke-linecap:round;stroke-linejoin:round;stroke:rgb(45.098877%,43.919373%,28.62854%);stroke-opacity:1;stroke-miterlimit:22.926001;" d="M 127.53651 2879.890586 L 251.87869 2881.645049 L 248.784363 2737.814642 L 125.781872 2737.814642 Z M 127.53651 2879.890586 " transform="matrix(0.329484,0,0,-0.329517,51.94752,1168.632406)"/>
<path style=" stroke:none;fill-rule:evenodd;fill:rgb(88.238525%,49.409485%,24.708557%);fill-opacity:1;" d="M 134.9375 219.082031 L 142.914062 227.679688 L 142.167969 275.164062 L 101.652344 275.164062 L 93.390625 266.476562 L 133.917969 266.476562 L 134.9375 219.082031 "/>
<path style="fill:none;stroke-width:10.001;stroke-linecap:round;stroke-linejoin:round;stroke:rgb(45.098877%,43.919373%,28.62854%);stroke-opacity:1;stroke-miterlimit:22.926001;" d="M 251.87869 2881.645049 L 276.087952 2855.553338 L 273.82352 2711.450279 L 150.856597 2711.450279 L 125.781872 2737.814642 L 248.784363 2737.814642 Z M 251.87869 2881.645049 " transform="matrix(0.329484,0,0,-0.329517,51.94752,1168.632406)"/>
<path style="fill:none;stroke-width:10.001;stroke-linecap:round;stroke-linejoin:round;stroke:rgb(45.098877%,43.919373%,28.62854%);stroke-opacity:1;stroke-miterlimit:22.926001;" d="M 143.589076 2890.476637 C 143.363818 2883.672165 143.280829 2877.187764 143.280829 2868.984464 " transform="matrix(0.329484,0,0,-0.329517,51.94752,1168.632406)"/>
<path style="fill:none;stroke-width:10.001;stroke-linecap:round;stroke-linejoin:round;stroke:rgb(45.098877%,43.919373%,28.62854%);stroke-opacity:1;stroke-miterlimit:22.926001;" d="M 167.027719 2889.694241 C 166.802462 2882.889769 166.719472 2876.405369 166.719472 2868.249486 " transform="matrix(0.329484,0,0,-0.329517,51.94752,1168.632406)"/>
<path style="fill:none;stroke-width:10.001;stroke-linecap:round;stroke-linejoin:round;stroke:rgb(45.098877%,43.919373%,28.62854%);stroke-opacity:1;stroke-miterlimit:22.926001;" d="M 191.011723 2891.330159 C 190.786465 2884.537542 190.703476 2878.053141 190.703476 2869.849841 " transform="matrix(0.329484,0,0,-0.329517,51.94752,1168.632406)"/>
<path style="fill:none;stroke-width:10.001;stroke-linecap:round;stroke-linejoin:round;stroke:rgb(45.098877%,43.919373%,28.62854%);stroke-opacity:1;stroke-miterlimit:22.926001;" d="M 214.023562 2891.65023 C 213.786449 2884.893176 213.715315 2878.361358 213.715315 2870.205476 " transform="matrix(0.329484,0,0,-0.329517,51.94752,1168.632406)"/>
<path style="fill:none;stroke-width:10.001;stroke-linecap:round;stroke-linejoin:round;stroke:rgb(45.098877%,43.919373%,28.62854%);stroke-opacity:1;stroke-miterlimit:22.926001;" d="M 235.506022 2889.421588 C 235.268908 2882.617116 235.197774 2876.132716 235.197774 2867.929415 " transform="matrix(0.329484,0,0,-0.329517,51.94752,1168.632406)"/>
</g>
</svg>
